Fraunces-LightOpMax.ufo
<glyph name="exclam" format="2">
  <advance width="225"/>
  <unicode hex="0021"/>
  <outline>
    <contour>
      <point x="114" y="703" type="curve" smooth="yes"/>
      <point x="126" y="703"/>
      <point x="134" y="690"/>
      <point x="134" y="674" type="curve" smooth="yes"/>
      <point x="134" y="677"/>
      <point x="134" y="682"/>
      <point x="136" y="687" type="curve" smooth="yes"/>
      <point x="113" y="159" type="line" smooth="yes"/>
      <point x="114" y="158"/>
      <point x="114" y="158"/>
      <point x="113" y="158" type="curve" smooth="yes"/>
      <point x="114" y="158"/>
      <point x="113" y="160"/>
      <point x="114" y="160" type="curve" smooth="yes"/>
      <point x="91" y="674" type="line" smooth="yes"/>
      <point x="92" y="671"/>
      <point x="93" y="673"/>
      <point x="93" y="672" type="curve" smooth="yes"/>
      <point x="93" y="696"/>
      <point x="95" y="703"/>
    </contour>
    <component base="period" xScale="0.8860999999999999" yScale="0.8860999999999999" xOffset="20" yOffset="-2"/>
  </outline>
</glyph>
<glyph name="numbersign" format="2">
  <advance width="543"/>
  <unicode hex="0023"/>
  <outline>
    <contour>
      <point x="188" y="307" type="curve" smooth="yes"/>
      <point x="166" y="73"/>
      <point x="138" y="36"/>
      <point x="140" y="12" type="curve" smooth="yes"/>
      <point x="141" y="-4"/>
      <point x="149" y="-16"/>
      <point x="158" y="-16" type="curve" smooth="yes"/>
      <point x="170" y="-16"/>
      <point x="178" y="-9"/>
      <point x="180" y="10" type="curve" smooth="yes"/>
      <point x="185" y="33"/>
      <point x="176" y="72"/>
      <point x="199" y="307" type="curve" smooth="yes"/>
      <point x="220" y="537"/>
      <point x="248" y="576"/>
      <point x="246" y="602" type="curve" smooth="yes"/>
      <point x="245" y="618"/>
      <point x="238" y="629"/>
      <point x="227" y="629" type="curve" smooth="yes"/>
      <point x="215" y="629"/>
      <point x="209" y="621"/>
      <point x="204" y="600" type="curve" smooth="yes"/>
      <point x="199" y="571"/>
      <point x="212" y="561"/>
    </contour>
    <contour>
      <point x="350" y="307" type="curve" smooth="yes"/>
      <point x="328" y="74"/>
      <point x="299" y="36"/>
      <point x="301" y="12" type="curve" smooth="yes"/>
      <point x="302" y="-4"/>
      <point x="308" y="-16"/>
      <point x="319" y="-16" type="curve" smooth="yes"/>
      <point x="330" y="-16"/>
      <point x="339" y="-9"/>
      <point x="342" y="10" type="curve" smooth="yes"/>
      <point x="347" y="34"/>
      <point x="337" y="66"/>
      <point x="360" y="307" type="curve" smooth="yes"/>
      <point x="380" y="537"/>
      <point x="408" y="576"/>
      <point x="406" y="602" type="curve" smooth="yes"/>
      <point x="405" y="618"/>
      <point x="398" y="629"/>
      <point x="387" y="629" type="curve" smooth="yes"/>
      <point x="375" y="629"/>
      <point x="368" y="621"/>
      <point x="365" y="600" type="curve" smooth="yes"/>
      <point x="359" y="573"/>
      <point x="375" y="554"/>
    </contour>
    <contour>
      <point x="277" y="391" type="curve" smooth="yes"/>
      <point x="438" y="391"/>
      <point x="455" y="373"/>
      <point x="467" y="373" type="curve" smooth="yes"/>
      <point x="484" y="373"/>
      <point x="492" y="384"/>
      <point x="492" y="395" type="curve" smooth="yes"/>
      <point x="492" y="405"/>
      <point x="485" y="415"/>
      <point x="470" y="415" type="curve" smooth="yes"/>
      <point x="461" y="415"/>
      <point x="441" y="399"/>
      <point x="277" y="401" type="curve" smooth="yes"/>
      <point x="117" y="401"/>
      <point x="97" y="416"/>
      <point x="87" y="416" type="curve" smooth="yes"/>
      <point x="70" y="416"/>
      <point x="62" y="406"/>
      <point x="62" y="397" type="curve" smooth="yes"/>
      <point x="62" y="383"/>
      <point x="71" y="376"/>
      <point x="88" y="375" type="curve" smooth="yes"/>
      <point x="97" y="374"/>
      <point x="117" y="391"/>
    </contour>
    <contour>
      <point x="265" y="221" type="curve" smooth="yes"/>
      <point x="426" y="221"/>
      <point x="444" y="207"/>
      <point x="455" y="207" type="curve" smooth="yes"/>
      <point x="472" y="207"/>
      <point x="481" y="219"/>
      <point x="481" y="228" type="curve" smooth="yes"/>
      <point x="481" y="237"/>
      <point x="473" y="244"/>
      <point x="458" y="244" type="curve" smooth="yes"/>
      <point x="449" y="244"/>
      <point x="430" y="229"/>
      <point x="265" y="231" type="curve" smooth="yes"/>
      <point x="105" y="231"/>
      <point x="86" y="245"/>
      <point x="74" y="245" type="curve" smooth="yes"/>
      <point x="58" y="245"/>
      <point x="50" y="239"/>
      <point x="50" y="229" type="curve" smooth="yes"/>
      <point x="50" y="219"/>
      <point x="59" y="209"/>
      <point x="73" y="209" type="curve" smooth="yes"/>
      <point x="87" y="209"/>
      <point x="104" y="221"/>
    </contour>
  </outline>
</glyph>
<glyph name="dollar" format="2">
  <advance width="462"/>
  <unicode hex="0024"/>
  <outline>
    <contour>
      <point x="240" y="0" type="curve" smooth="yes"/>
      <point x="344" y="0"/>
      <point x="405" y="70"/>
      <point x="405" y="155" type="curve" smooth="yes"/>
      <point x="405" y="217"/>
      <point x="365" y="268"/>
      <point x="238" y="325" type="curve" smooth="yes"/>
      <point x="135" y="368"/>
      <point x="97" y="416"/>
      <point x="97" y="482" type="curve" smooth="yes"/>
      <point x="97" y="578"/>
      <point x="166" y="632"/>
      <point x="248" y="632" type="curve" smooth="yes"/>
      <point x="305" y="632"/>
      <point x="341" y="594"/>
      <point x="341" y="545" type="curve" smooth="yes"/>
      <point x="341" y="509" type="line" smooth="yes"/>
      <point x="341" y="488"/>
      <point x="355" y="472"/>
      <point x="373" y="472" type="curve" smooth="yes"/>
      <point x="388" y="472"/>
      <point x="403" y="488"/>
      <point x="403" y="509" type="curve" smooth="yes"/>
      <point x="403" y="575"/>
      <point x="332" y="629"/>
      <point x="242" y="629" type="curve" smooth="yes"/>
      <point x="129" y="629"/>
      <point x="53" y="557"/>
      <point x="53" y="469" type="curve" smooth="yes"/>
      <point x="53" y="393"/>
      <point x="104" y="343"/>
      <point x="234" y="292" type="curve" smooth="yes"/>
      <point x="336" y="252"/>
      <point x="371" y="201"/>
      <point x="371" y="140" type="curve" smooth="yes"/>
      <point x="371" y="50"/>
      <point x="318" y="-2"/>
      <point x="240" y="-2" type="curve" smooth="yes"/>
      <point x="166" y="-2"/>
      <point x="122" y="36"/>
      <point x="122" y="85" type="curve" smooth="yes"/>
      <point x="122" y="130" type="line" smooth="yes"/>
      <point x="122" y="152"/>
      <point x="110" y="167"/>
      <point x="97" y="167" type="curve" smooth="yes"/>
      <point x="77" y="167"/>
      <point x="62" y="147"/>
      <point x="62" y="121" type="curve" smooth="yes"/>
      <point x="62" y="54"/>
      <point x="142" y="0"/>
    </contour>
    <contour>
      <point x="228" y="327" type="line"/>
      <point x="228" y="40"/>
      <point x="215" y="-16"/>
      <point x="215" y="-46" type="curve" smooth="yes"/>
      <point x="215" y="-64"/>
      <point x="225" y="-72"/>
      <point x="237" y="-72" type="curve" smooth="yes"/>
      <point x="248" y="-72"/>
      <point x="259" y="-65"/>
      <point x="260" y="-46" type="curve" smooth="yes"/>
      <point x="260" y="-16"/>
      <point x="246" y="39"/>
      <point x="246" y="327" type="curve"/>
    </contour>
    <contour>
      <point x="244" y="304" type="line"/>
      <point x="244" y="587"/>
      <point x="258" y="639"/>
      <point x="258" y="670" type="curve" smooth="yes"/>
      <point x="258" y="689"/>
      <point x="247" y="697"/>
      <point x="235" y="697" type="curve" smooth="yes"/>
      <point x="224" y="697"/>
      <point x="213" y="689"/>
      <point x="213" y="670" type="curve" smooth="yes"/>
      <point x="213" y="641"/>
      <point x="226" y="588"/>
      <point x="226" y="304" type="curve"/>
    </contour>
  </outline>
</glyph>
<glyph name="asterisk" format="2">
  <advance width="413"/>
  <unicode hex="002A"/>
  <outline>
    <contour>
      <point x="209" y="535" type="line"/>
      <point x="209" y="626"/>
      <point x="232" y="649"/>
      <point x="232" y="687" type="curve" smooth="yes"/>
      <point x="232" y="710"/>
      <point x="219" y="720"/>
      <point x="206" y="720" type="curve" smooth="yes"/>
      <point x="193" y="720"/>
      <point x="182" y="708"/>
      <point x="181" y="688" type="curve" smooth="yes"/>
      <point x="180" y="649"/>
      <point x="204" y="629"/>
      <point x="204" y="535" type="curve"/>
    </contour>
    <contour>
      <point x="207" y="538" type="line"/>
      <point x="119" y="566"/>
      <point x="105" y="595"/>
      <point x="68" y="607" type="curve" smooth="yes"/>
      <point x="47" y="614"/>
      <point x="34" y="604"/>
      <point x="30" y="592" type="curve" smooth="yes"/>
      <point x="26" y="580"/>
      <point x="33" y="565"/>
      <point x="52" y="559" type="curve" smooth="yes"/>
      <point x="89" y="546"/>
      <point x="116" y="562"/>
      <point x="205" y="534" type="curve"/>
    </contour>
    <contour>
      <point x="203" y="537" type="line"/>
      <point x="149" y="463"/>
      <point x="117" y="458"/>
      <point x="94" y="427" type="curve" smooth="yes"/>
      <point x="81" y="408"/>
      <point x="86" y="392"/>
      <point x="97" y="385" type="curve" smooth="yes"/>
      <point x="106" y="378"/>
      <point x="123" y="380"/>
      <point x="137" y="396" type="curve" smooth="yes"/>
      <point x="160" y="427"/>
      <point x="151" y="458"/>
      <point x="206" y="534" type="curve"/>
    </contour>
    <contour>
      <point x="203" y="532" type="line"/>
      <point x="254" y="457"/>
      <point x="248" y="426"/>
      <point x="269" y="393" type="curve" smooth="yes"/>
      <point x="281" y="375"/>
      <point x="298" y="374"/>
      <point x="309" y="381" type="curve" smooth="yes"/>
      <point x="320" y="388"/>
      <point x="323" y="403"/>
      <point x="313" y="421" type="curve" smooth="yes"/>
      <point x="291" y="454"/>
      <point x="259" y="458"/>
      <point x="206" y="535" type="curve"/>
    </contour>
    <contour>
      <point x="207" y="531" type="line"/>
      <point x="294" y="560"/>
      <point x="323" y="545"/>
      <point x="359" y="557" type="curve" smooth="yes"/>
      <point x="380" y="563"/>
      <point x="386" y="579"/>
      <point x="382" y="592" type="curve" smooth="yes"/>
      <point x="378" y="603"/>
      <point x="364" y="611"/>
      <point x="343" y="605" type="curve" smooth="yes"/>
      <point x="306" y="595"/>
      <point x="295" y="564"/>
      <point x="205" y="536" type="curve"/>
    </contour>
  </outline>
</glyph>
<glyph name="period" format="2">
  <advance width="159"/>
  <unicode hex="002E"/>
  <outline>
    <contour>
      <point x="80" y="-10" type="curve" smooth="yes"/>
      <point x="96" y="-10"/>
      <point x="109" y="3"/>
      <point x="109" y="20" type="curve" smooth="yes"/>
      <point x="109" y="36"/>
      <point x="96" y="48"/>
      <point x="80" y="48" type="curve" smooth="yes"/>
      <point x="63" y="48"/>
      <point x="50" y="36"/>
      <point x="50" y="20" type="curve" smooth="yes"/>
      <point x="50" y="3"/>
      <point x="63" y="-10"/>
    </contour>
  </outline>
</glyph>
<glyph name="three" format="2">
  <advance width="436"/>
  <unicode hex="0033"/>
  <outline>
    <contour>
      <point x="163" y="325" type="line"/>
      <point x="395" y="613" type="line" smooth="yes"/>
      <point x="400" y="621"/>
      <point x="406" y="624"/>
      <point x="406" y="630" type="curve" smooth="yes"/>
      <point x="406" y="630"/>
      <point x="401" y="630"/>
      <point x="408" y="630" type="curve" smooth="yes"/>
      <point x="79" y="630" type="line" smooth="yes"/>
      <point x="83" y="630"/>
      <point x="86" y="627"/>
      <point x="85" y="623" type="curve" smooth="yes"/>
      <point x="66" y="523" type="line" smooth="yes"/>
      <point x="64" y="514"/>
      <point x="65" y="511"/>
      <point x="64" y="511" type="curve" smooth="yes"/>
      <point x="66" y="511"/>
      <point x="69" y="513"/>
      <point x="69" y="514" type="curve" smooth="yes"/>
      <point x="98" y="572" type="line" smooth="yes"/>
      <point x="106" y="587"/>
      <point x="114" y="593"/>
      <point x="125" y="593" type="curve" smooth="yes"/>
      <point x="358" y="593" type="line"/>
      <point x="362" y="587" type="line"/>
      <point x="157" y="328" type="line" smooth="yes"/>
      <point x="159" y="329"/>
      <point x="161" y="331"/>
      <point x="161" y="333" type="curve" smooth="yes"/>
      <point x="161" y="331"/>
      <point x="162" y="328"/>
      <point x="166" y="328" type="curve" smooth="yes"/>
      <point x="195" y="328" type="line" smooth="yes"/>
      <point x="294" y="328"/>
      <point x="360" y="269"/>
      <point x="360" y="144" type="curve" smooth="yes"/>
      <point x="360" y="62"/>
      <point x="305" y="-3"/>
      <point x="224" y="-4" type="curve" smooth="yes"/>
      <point x="148" y="-5"/>
      <point x="105" y="38"/>
      <point x="105" y="90" type="curve" smooth="yes"/>
      <point x="105" y="107" type="line" smooth="yes"/>
      <point x="105" y="130"/>
      <point x="89" y="146"/>
      <point x="70" y="146" type="curve" smooth="yes"/>
      <point x="54" y="146"/>
      <point x="40" y="132"/>
      <point x="40" y="114" type="curve" smooth="yes"/>
      <point x="40" y="46"/>
      <point x="90" y="-10"/>
      <point x="193" y="-10" type="curve" smooth="yes"/>
      <point x="298" y="-10"/>
      <point x="392" y="70"/>
      <point x="392" y="174" type="curve" smooth="yes"/>
      <point x="392" y="285"/>
      <point x="320" y="332"/>
      <point x="206" y="332" type="curve" smooth="yes"/>
      <point x="199" y="332"/>
      <point x="184" y="332"/>
      <point x="175" y="332" type="curve"/>
    </contour>
  </outline>
</glyph>
<glyph name="four" format="2">
  <advance width="430"/>
  <unicode hex="0034"/>
  <outline>
    <contour>
      <point x="259" y="358" type="curve" smooth="yes"/>
      <point x="260" y="51" type="line" smooth="yes"/>
      <point x="260" y="24"/>
      <point x="248" y="5"/>
      <point x="222" y="4" type="curve" smooth="yes"/>
      <point x="151" y="-2" type="line" smooth="yes"/>
      <point x="151" y="1"/>
      <point x="154" y="-3"/>
      <point x="154" y="-3" type="curve" smooth="yes"/>
      <point x="154" y="-1"/>
      <point x="155" y="0"/>
      <point x="161" y="0" type="curve" smooth="yes"/>
      <point x="385" y="0" type="line" smooth="yes"/>
      <point x="391" y="0"/>
      <point x="392" y="-1"/>
      <point x="392" y="-3" type="curve" smooth="yes"/>
      <point x="392" y="-3"/>
      <point x="391" y="-5"/>
      <point x="387" y="-4" type="curve" smooth="yes"/>
      <point x="337" y="2" type="line" smooth="yes"/>
      <point x="313" y="4"/>
      <point x="300" y="21"/>
      <point x="300" y="48" type="curve" smooth="yes"/>
      <point x="299" y="435" type="line" smooth="yes"/>
      <point x="299" y="431"/>
      <point x="300" y="428"/>
      <point x="301" y="428" type="curve" smooth="yes"/>
      <point x="302" y="428"/>
      <point x="302" y="428"/>
      <point x="302" y="424" type="curve" smooth="yes"/>
      <point x="262" y="363" type="line" smooth="yes"/>
      <point x="261" y="359"/>
      <point x="259" y="356"/>
    </contour>
    <contour>
      <point x="205" y="449" type="curve" smooth="yes"/>
      <point x="-1" y="166" type="line" smooth="yes"/>
      <point x="-3" y="159"/>
      <point x="10" y="163"/>
      <point x="10" y="167" type="curve" smooth="yes"/>
      <point x="10" y="168"/>
      <point x="10" y="169"/>
      <point x="10" y="169" type="curve" smooth="yes"/>
      <point x="394" y="169" type="line" smooth="yes"/>
      <point x="395" y="169"/>
      <point x="398" y="171"/>
      <point x="398" y="173" type="curve" smooth="yes"/>
      <point x="397" y="172"/>
      <point x="401" y="172"/>
      <point x="404" y="172" type="curve" smooth="yes"/>
      <point x="3" y="172" type="line"/>
      <point x="15" y="162" type="line"/>
      <point x="256" y="510" type="line" smooth="yes"/>
      <point x="270" y="540"/>
      <point x="270" y="557"/>
      <point x="270" y="591" type="curve" smooth="yes"/>
      <point x="270" y="621"/>
      <point x="256" y="640"/>
      <point x="235" y="640" type="curve" smooth="yes"/>
      <point x="210" y="640"/>
      <point x="194" y="626"/>
      <point x="194" y="606" type="curve" smooth="yes"/>
      <point x="194" y="570"/>
      <point x="223" y="557"/>
      <point x="223" y="522" type="curve" smooth="yes"/>
      <point x="223" y="481"/>
      <point x="214" y="466"/>
    </contour>
  </outline>
</glyph>
<glyph name="five" format="2">
  <advance width="448"/>
  <unicode hex="0035"/>
  <outline>
    <contour>
      <point x="57" y="116" type="curve" smooth="yes"/>
      <point x="57" y="46"/>
      <point x="119" y="-10"/>
      <point x="212" y="-10" type="curve" smooth="yes"/>
      <point x="326" y="-10"/>
      <point x="414" y="73"/>
      <point x="414" y="199" type="curve" smooth="yes"/>
      <point x="414" y="305"/>
      <point x="343" y="380"/>
      <point x="237" y="380" type="curve" smooth="yes"/>
      <point x="175" y="380"/>
      <point x="125" y="343"/>
      <point x="85" y="279" type="curve"/>
      <point x="82" y="264" type="line"/>
      <point x="82" y="590" type="line"/>
      <point x="87" y="606" type="line"/>
      <point x="136" y="559"/>
      <point x="197" y="545"/>
      <point x="269" y="545" type="curve" smooth="yes"/>
      <point x="342" y="545"/>
      <point x="401" y="584"/>
      <point x="401" y="654" type="curve" smooth="yes"/>
      <point x="401" y="653"/>
      <point x="404" y="651"/>
      <point x="405" y="651" type="curve" smooth="yes"/>
      <point x="406" y="651"/>
      <point x="408" y="652"/>
      <point x="405" y="649" type="curve" smooth="yes"/>
      <point x="388" y="602"/>
      <point x="352" y="580"/>
      <point x="279" y="580" type="curve" smooth="yes"/>
      <point x="165" y="580"/>
      <point x="88" y="649"/>
      <point x="75" y="649" type="curve" smooth="yes"/>
      <point x="71" y="649"/>
      <point x="70" y="646"/>
      <point x="70" y="641" type="curve" smooth="yes"/>
      <point x="70" y="256" type="line" smooth="yes"/>
      <point x="70" y="254"/>
      <point x="68" y="254"/>
      <point x="67" y="254" type="curve" smooth="yes"/>
      <point x="68" y="254"/>
      <point x="71" y="254"/>
      <point x="70" y="256" type="curve" smooth="yes"/>
      <point x="129" y="336"/>
      <point x="182" y="367"/>
      <point x="238" y="367" type="curve" smooth="yes"/>
      <point x="325" y="367"/>
      <point x="375" y="299"/>
      <point x="375" y="179" type="curve" smooth="yes"/>
      <point x="375" y="53"/>
      <point x="315" y="-7"/>
      <point x="234" y="-7" type="curve" smooth="yes"/>
      <point x="157" y="-7"/>
      <point x="117" y="30"/>
      <point x="117" y="87" type="curve" smooth="yes"/>
      <point x="117" y="113" type="line" smooth="yes"/>
      <point x="117" y="136"/>
      <point x="104" y="150"/>
      <point x="82" y="150" type="curve" smooth="yes"/>
      <point x="69" y="150"/>
      <point x="57" y="135"/>
    </contour>
  </outline>
</glyph>
<glyph name="six" format="2">
  <advance width="485"/>
  <unicode hex="0036"/>
  <outline>
    <contour>
      <point x="259" y="642" type="curve" smooth="yes"/>
      <point x="148" y="642"/>
      <point x="62" y="535"/>
      <point x="62" y="315" type="curve" smooth="yes"/>
      <point x="62" y="112"/>
      <point x="141" y="-10"/>
      <point x="258" y="-10" type="curve" smooth="yes"/>
      <point x="363" y="-10"/>
      <point x="436" y="84"/>
      <point x="436" y="193" type="curve" smooth="yes"/>
      <point x="436" y="321"/>
      <point x="358" y="388"/>
      <point x="265" y="388" type="curve" smooth="yes"/>
      <point x="184" y="388"/>
      <point x="108" y="336"/>
      <point x="108" y="196" type="curve"/>
      <point x="111" y="185" type="line"/>
      <point x="111" y="321"/>
      <point x="187" y="379"/>
      <point x="260" y="379" type="curve" smooth="yes"/>
      <point x="339" y="379"/>
      <point x="391" y="309"/>
      <point x="391" y="180" type="curve" smooth="yes"/>
      <point x="391" y="58"/>
      <point x="338" y="-4"/>
      <point x="268" y="-4" type="curve" smooth="yes"/>
      <point x="169" y="-4"/>
      <point x="101" y="87"/>
      <point x="101" y="313" type="curve" smooth="yes"/>
      <point x="101" y="541"/>
      <point x="173" y="634"/>
      <point x="268" y="634" type="curve" smooth="yes"/>
      <point x="325" y="634"/>
      <point x="355" y="603"/>
      <point x="355" y="556" type="curve" smooth="yes"/>
      <point x="355" y="535" type="line" smooth="yes"/>
      <point x="355" y="507"/>
      <point x="362" y="495"/>
      <point x="384" y="495" type="curve" smooth="yes"/>
      <point x="404" y="495"/>
      <point x="411" y="509"/>
      <point x="411" y="534" type="curve" smooth="yes"/>
      <point x="411" y="591"/>
      <point x="346" y="642"/>
    </contour>
  </outline>
</glyph>
<glyph name="C" format="2">
  <advance width="652"/>
  <unicode hex="0043"/>
  <anchor x="360" y="775" name="center"/>
  <outline>
    <contour>
      <point x="608" y="142" type="curve" smooth="yes"/>
      <point x="608" y="141"/>
      <point x="610" y="139"/>
      <point x="608" y="139" type="curve" smooth="yes"/>
      <point x="608" y="139"/>
      <point x="606" y="135"/>
      <point x="608" y="138" type="curve" smooth="yes"/>
      <point x="577" y="63"/>
      <point x="510" y="20"/>
      <point x="401" y="20" type="curve" smooth="yes"/>
      <point x="214" y="20"/>
      <point x="86" y="154"/>
      <point x="86" y="376" type="curve" smooth="yes"/>
      <point x="86" y="586"/>
      <point x="208" y="711"/>
      <point x="378" y="711" type="curve" smooth="yes"/>
      <point x="486" y="711"/>
      <point x="555" y="655"/>
      <point x="622" y="542" type="curve" smooth="yes"/>
      <point x="624" y="541"/>
      <point x="621" y="541"/>
      <point x="622" y="541" type="curve" smooth="yes"/>
      <point x="620" y="541"/>
      <point x="621" y="541"/>
      <point x="621" y="544" type="curve" smooth="yes"/>
      <point x="621" y="546"/>
      <point x="620" y="547"/>
      <point x="618" y="552" type="curve" smooth="yes"/>
      <point x="562" y="721" type="line" smooth="yes"/>
      <point x="563" y="716"/>
      <point x="562" y="714"/>
      <point x="563" y="714" type="curve" smooth="yes"/>
      <point x="560" y="714"/>
      <point x="534" y="679"/>
      <point x="524" y="679" type="curve" smooth="yes"/>
      <point x="506" y="679"/>
      <point x="453" y="713"/>
      <point x="373" y="713" type="curve" smooth="yes"/>
      <point x="184" y="713"/>
      <point x="45" y="558"/>
      <point x="45" y="338" type="curve" smooth="yes"/>
      <point x="45" y="130"/>
      <point x="170" y="-15"/>
      <point x="365" y="-15" type="curve" smooth="yes"/>
      <point x="503" y="-15"/>
      <point x="608" y="69"/>
    </contour>
  </outline>
</glyph>
<glyph name="D" format="2">
  <advance width="679"/>
  <unicode hex="0044"/>
  <outline>
    <contour>
      <point x="30" y="-3" type="curve" smooth="yes"/>
      <point x="30" y="-1"/>
      <point x="31" y="0"/>
      <point x="33" y="0" type="curve" smooth="yes"/>
      <point x="311" y="0" type="line" smooth="yes"/>
      <point x="498" y="0"/>
      <point x="640" y="132"/>
      <point x="640" y="312" type="curve" smooth="yes"/>
      <point x="640" y="539"/>
      <point x="471" y="700"/>
      <point x="256" y="700" type="curve" smooth="yes"/>
      <point x="54" y="700" type="line" smooth="yes"/>
      <point x="37" y="700"/>
      <point x="30" y="700"/>
      <point x="30" y="701" type="curve" smooth="yes"/>
      <point x="30" y="702"/>
      <point x="34" y="705"/>
      <point x="42" y="703" type="curve" smooth="yes"/>
      <point x="95" y="691" type="line" smooth="yes"/>
      <point x="111" y="687"/>
      <point x="120" y="679"/>
      <point x="120" y="663" type="curve" smooth="yes"/>
      <point x="120" y="38" type="line" smooth="yes"/>
      <point x="120" y="17"/>
      <point x="109" y="6"/>
      <point x="85" y="3" type="curve" smooth="yes"/>
      <point x="35" y="-6" type="line" smooth="yes"/>
      <point x="33" y="-6"/>
      <point x="30" y="-4"/>
    </contour>
    <contour>
      <point x="311" y="6" type="curve" smooth="yes"/>
      <point x="208" y="6" type="line" smooth="yes"/>
      <point x="176" y="6"/>
      <point x="159" y="21"/>
      <point x="159" y="48" type="curve" smooth="yes"/>
      <point x="159" y="660" type="line" smooth="yes"/>
      <point x="159" y="684"/>
      <point x="167" y="695"/>
      <point x="188" y="695" type="curve" smooth="yes"/>
      <point x="257" y="695" type="line" smooth="yes"/>
      <point x="457" y="695"/>
      <point x="592" y="553"/>
      <point x="592" y="336" type="curve" smooth="yes"/>
      <point x="592" y="136"/>
      <point x="473" y="6"/>
    </contour>
  </outline>
</glyph>
<glyph name="F" format="2">
  <advance width="496"/>
  <unicode hex="0046"/>
  <outline>
    <contour>
      <point x="420" y="700" type="curve" smooth="yes"/>
      <point x="37" y="700" type="line" smooth="yes"/>
      <point x="33" y="700"/>
      <point x="32" y="701"/>
      <point x="32" y="703" type="curve" smooth="yes"/>
      <point x="32" y="706"/>
      <point x="35" y="708"/>
      <point x="39" y="707" type="curve" smooth="yes"/>
      <point x="107" y="689" type="line" smooth="yes"/>
      <point x="117" y="686"/>
      <point x="122" y="680"/>
      <point x="122" y="673" type="curve" smooth="yes"/>
      <point x="122" y="34" type="line" smooth="yes"/>
      <point x="122" y="17"/>
      <point x="114" y="8"/>
      <point x="97" y="5" type="curve" smooth="yes"/>
      <point x="35" y="-7" type="line" smooth="yes"/>
      <point x="33" y="-7"/>
      <point x="32" y="-5"/>
      <point x="32" y="-4" type="curve" smooth="yes"/>
      <point x="32" y="-1"/>
      <point x="34" y="0"/>
      <point x="36" y="0" type="curve" smooth="yes"/>
      <point x="261" y="0" type="line" smooth="yes"/>
      <point x="264" y="0"/>
      <point x="267" y="-1"/>
      <point x="267" y="-4" type="curve" smooth="yes"/>
      <point x="267" y="-7"/>
      <point x="267" y="-10"/>
      <point x="265" y="-11" type="curve" smooth="yes"/>
      <point x="186" y="3" type="line" smooth="yes"/>
      <point x="168" y="6"/>
      <point x="160" y="15"/>
      <point x="160" y="32" type="curve" smooth="yes"/>
      <point x="160" y="692" type="line"/>
      <point x="326" y="692" type="line" smooth="yes"/>
      <point x="373" y="692"/>
      <point x="421" y="666"/>
      <point x="478" y="570" type="curve" smooth="yes"/>
      <point x="475" y="575"/>
      <point x="472" y="575"/>
      <point x="471" y="575" type="curve" smooth="yes"/>
      <point x="469" y="575"/>
      <point x="467" y="575"/>
      <point x="467" y="576" type="curve" smooth="yes"/>
      <point x="467" y="575"/>
      <point x="468" y="576"/>
      <point x="468" y="574" type="curve" smooth="yes"/>
      <point x="426" y="723" type="line" smooth="yes"/>
      <point x="424" y="724"/>
      <point x="424" y="725"/>
      <point x="422" y="725" type="curve" smooth="yes"/>
      <point x="424" y="725"/>
      <point x="423" y="722"/>
      <point x="425" y="716" type="curve" smooth="yes"/>
      <point x="425" y="705"/>
      <point x="421" y="700"/>
    </contour>
    <contour>
      <point x="133" y="332" type="line"/>
      <point x="136" y="324" type="line"/>
      <point x="294" y="324" type="line" smooth="yes"/>
      <point x="344" y="324"/>
      <point x="375" y="311"/>
      <point x="393" y="271" type="curve" smooth="yes"/>
      <point x="394" y="266"/>
      <point x="396" y="263"/>
      <point x="400" y="263" type="curve" smooth="yes"/>
      <point x="400" y="263"/>
      <point x="402" y="263"/>
      <point x="402" y="266" type="curve" smooth="yes"/>
      <point x="402" y="265"/>
      <point x="403" y="263"/>
      <point x="402" y="265" type="curve" smooth="yes"/>
      <point x="359" y="396" type="line" smooth="yes"/>
      <point x="358" y="394"/>
      <point x="359" y="393"/>
      <point x="359" y="393" type="curve" smooth="yes"/>
      <point x="360" y="393"/>
      <point x="358" y="392"/>
      <point x="360" y="391" type="curve" smooth="yes"/>
      <point x="352" y="347"/>
      <point x="329" y="332"/>
      <point x="292" y="332" type="curve" smooth="yes"/>
    </contour>
  </outline>
</glyph>
<glyph name="I" format="2">
  <advance width="313"/>
  <unicode hex="0049"/>
  <outline>
    <contour>
      <point x="176" y="29" type="curve" smooth="yes"/>
      <point x="176" y="663" type="line" smooth="yes"/>
      <point x="176" y="681"/>
      <point x="182" y="690"/>
      <point x="199" y="694" type="curve" smooth="yes"/>
      <point x="258" y="709" type="line" smooth="yes"/>
      <point x="259" y="708"/>
      <point x="262" y="706"/>
      <point x="262" y="704" type="curve" smooth="yes"/>
      <point x="262" y="701"/>
      <point x="260" y="700"/>
      <point x="256" y="700" type="curve" smooth="yes"/>
      <point x="56" y="700" type="line" smooth="yes"/>
      <point x="53" y="700"/>
      <point x="51" y="701"/>
      <point x="51" y="704" type="curve" smooth="yes"/>
      <point x="51" y="706"/>
      <point x="54" y="707"/>
      <point x="56" y="708" type="curve" smooth="yes"/>
      <point x="114" y="694" type="line" smooth="yes"/>
      <point x="130" y="690"/>
      <point x="137" y="681"/>
      <point x="137" y="663" type="curve" smooth="yes"/>
      <point x="137" y="29" type="line" smooth="yes"/>
      <point x="137" y="13"/>
      <point x="130" y="5"/>
      <point x="113" y="3" type="curve" smooth="yes"/>
      <point x="54" y="-8" type="line" smooth="yes"/>
      <point x="52" y="-7"/>
      <point x="51" y="-5"/>
      <point x="51" y="-4" type="curve" smooth="yes"/>
      <point x="51" y="-1"/>
      <point x="52" y="0"/>
      <point x="54" y="0" type="curve" smooth="yes"/>
      <point x="259" y="0" type="line" smooth="yes"/>
      <point x="261" y="0"/>
      <point x="262" y="-1"/>
      <point x="262" y="-4" type="curve" smooth="yes"/>
      <point x="262" y="-6"/>
      <point x="259" y="-9"/>
      <point x="258" y="-9" type="curve" smooth="yes"/>
      <point x="199" y="3" type="line" smooth="yes"/>
      <point x="182" y="6"/>
      <point x="176" y="13"/>
    </contour>
  </outline>
</glyph>
<glyph name="J" format="2">
  <advance width="343"/>
  <unicode hex="004A"/>
  <anchor x="211" y="732" name="center"/>
  <outline>
    <contour>
      <point x="233" y="140" type="curve" smooth="yes"/>
      <point x="233" y="164"/>
      <point x="232" y="178"/>
      <point x="224" y="211" type="curve" smooth="yes"/>
      <point x="217" y="244"/>
      <point x="218" y="258"/>
      <point x="218" y="272" type="curve" smooth="yes"/>
      <point x="218" y="652" type="line" smooth="yes"/>
      <point x="218" y="675"/>
      <point x="225" y="689"/>
      <point x="240" y="693" type="curve" smooth="yes"/>
      <point x="291" y="707" type="line" smooth="yes"/>
      <point x="296" y="706"/>
      <point x="298" y="706"/>
      <point x="298" y="704" type="curve" smooth="yes"/>
      <point x="298" y="700"/>
      <point x="297" y="699"/>
      <point x="293" y="699" type="curve" smooth="yes"/>
      <point x="90" y="699" type="line" smooth="yes"/>
      <point x="80" y="699"/>
      <point x="81" y="700"/>
      <point x="81" y="703" type="curve" smooth="yes"/>
      <point x="81" y="704"/>
      <point x="82" y="707"/>
      <point x="88" y="707" type="curve" smooth="yes"/>
      <point x="154" y="692" type="line" smooth="yes"/>
      <point x="171" y="688"/>
      <point x="179" y="682"/>
      <point x="179" y="668" type="curve" smooth="yes"/>
      <point x="179" y="241" type="line" smooth="yes"/>
      <point x="179" y="237"/>
      <point x="184" y="211"/>
      <point x="196" y="188" type="curve" smooth="yes"/>
      <point x="218" y="151"/>
      <point x="226" y="117"/>
      <point x="226" y="88" type="curve" smooth="yes"/>
      <point x="226" y="29"/>
      <point x="192" y="-4"/>
      <point x="139" y="-4" type="curve" smooth="yes"/>
      <point x="98" y="-4"/>
      <point x="84" y="17"/>
      <point x="84" y="49" type="curve" smooth="yes"/>
      <point x="84" y="81" type="line" smooth="yes"/>
      <point x="84" y="96"/>
      <point x="80" y="112"/>
      <point x="57" y="112" type="curve" smooth="yes"/>
      <point x="38" y="112"/>
      <point x="29" y="98"/>
      <point x="29" y="79" type="curve" smooth="yes"/>
      <point x="29" y="29"/>
      <point x="64" y="-8"/>
      <point x="129" y="-8" type="curve" smooth="yes"/>
      <point x="193" y="-8"/>
      <point x="233" y="50"/>
    </contour>
  </outline>
</glyph>
<glyph name="K" format="2">
  <advance width="585"/>
  <unicode hex="004B"/>
  <outline>
    <contour>
      <point x="129" y="180" type="line"/>
      <point x="141" y="190" type="line"/>
      <point x="519" y="661" type="line" smooth="yes"/>
      <point x="526" y="677"/>
      <point x="554" y="697"/>
      <point x="593" y="711" type="curve" smooth="yes"/>
      <point x="595" y="713"/>
      <point x="599" y="710"/>
      <point x="599" y="708" type="curve" smooth="yes"/>
      <point x="598" y="705"/>
      <point x="603" y="700"/>
      <point x="603" y="700" type="curve" smooth="yes"/>
      <point x="458" y="700" type="line" smooth="yes"/>
      <point x="457" y="700"/>
      <point x="456" y="700"/>
      <point x="456" y="703" type="curve" smooth="yes"/>
      <point x="456" y="698"/>
      <point x="462" y="700"/>
      <point x="460" y="701" type="curve" smooth="yes"/>
      <point x="509" y="680" type="line" smooth="yes"/>
      <point x="518" y="677"/>
      <point x="525" y="675"/>
      <point x="525" y="669" type="curve" smooth="yes"/>
      <point x="525" y="674"/>
      <point x="530" y="678"/>
      <point x="533" y="679" type="curve" smooth="yes"/>
    </contour>
    <contour>
      <point x="283" y="349" type="line"/>
      <point x="474" y="49" type="line" smooth="yes"/>
      <point x="482" y="35"/>
      <point x="489" y="29"/>
      <point x="489" y="15" type="curve" smooth="yes"/>
      <point x="489" y="8"/>
      <point x="483" y="-1"/>
      <point x="468" y="-3" type="curve" smooth="yes"/>
      <point x="458" y="-3"/>
      <point x="450" y="-3"/>
      <point x="450" y="-3" type="curve" smooth="yes"/>
      <point x="450" y="0"/>
      <point x="452" y="0"/>
      <point x="455" y="0" type="curve" smooth="yes"/>
      <point x="597" y="0" type="line" smooth="yes"/>
      <point x="598" y="0"/>
      <point x="598" y="-2"/>
      <point x="598" y="-6" type="curve" smooth="yes"/>
      <point x="598" y="-9"/>
      <point x="598" y="-12"/>
      <point x="591" y="-12" type="curve" smooth="yes"/>
      <point x="564" y="-3"/>
      <point x="542" y="9"/>
      <point x="520" y="41" type="curve" smooth="yes"/>
      <point x="295" y="385" type="line"/>
    </contour>
    <component base="I" xOffset="1"/>
  </outline>
</glyph>
<glyph name="L" format="2">
  <advance width="468"/>
  <unicode hex="004C"/>
  <anchor x="149" y="739" name="center"/>
  <outline>
    <contour>
      <point x="258" y="707" type="line" smooth="yes"/>
      <point x="259" y="708"/>
      <point x="259" y="706"/>
      <point x="259" y="704" type="curve" smooth="yes"/>
      <point x="259" y="701"/>
      <point x="255" y="700"/>
      <point x="249" y="700" type="curve" smooth="yes"/>
      <point x="40" y="700" type="line" smooth="yes"/>
      <point x="33" y="700"/>
      <point x="29" y="701"/>
      <point x="29" y="703" type="curve" smooth="yes"/>
      <point x="29" y="704"/>
      <point x="30" y="708"/>
      <point x="42" y="704" type="curve" smooth="yes"/>
      <point x="94" y="690" type="line" smooth="yes"/>
      <point x="112" y="686"/>
      <point x="119" y="676"/>
      <point x="119" y="656" type="curve" smooth="yes"/>
      <point x="119" y="33" type="line" smooth="yes"/>
      <point x="119" y="18"/>
      <point x="108" y="8"/>
      <point x="93" y="4" type="curve" smooth="yes"/>
      <point x="42" y="-5" type="line" smooth="yes"/>
      <point x="34" y="-8"/>
      <point x="29" y="-6"/>
      <point x="29" y="-3" type="curve" smooth="yes"/>
      <point x="29" y="-1"/>
      <point x="34" y="0"/>
      <point x="42" y="0" type="curve" smooth="yes"/>
      <point x="418" y="0" type="line" smooth="yes"/>
      <point x="410" y="0"/>
      <point x="413" y="-17"/>
      <point x="415" y="-17" type="curve" smooth="yes"/>
      <point x="415" y="-17"/>
      <point x="416" y="-14"/>
      <point x="417" y="-9" type="curve" smooth="yes"/>
      <point x="466" y="166" type="line" smooth="yes"/>
      <point x="466" y="163"/>
      <point x="469" y="160"/>
      <point x="471" y="160" type="curve" smooth="yes"/>
      <point x="468" y="160"/>
      <point x="466" y="153"/>
      <point x="463" y="150" type="curve" smooth="yes"/>
      <point x="424" y="81" type="line" smooth="yes"/>
      <point x="393" y="24"/>
      <point x="358" y="3"/>
      <point x="309" y="3" type="curve" smooth="yes"/>
      <point x="212" y="3" type="line" smooth="yes"/>
      <point x="175" y="3"/>
      <point x="158" y="14"/>
      <point x="158" y="39" type="curve" smooth="yes"/>
      <point x="158" y="657" type="line" smooth="yes"/>
      <point x="158" y="677"/>
      <point x="166" y="687"/>
      <point x="186" y="690" type="curve" smooth="yes"/>
    </contour>
  </outline>
</glyph>
<glyph name="N" format="2">
  <advance width="710"/>
  <unicode hex="004E"/>
  <anchor x="359" y="745" name="center"/>
  <outline>
    <contour>
      <point x="239" y="-2" type="curve" smooth="yes"/>
      <point x="239" y="-3"/>
      <point x="238" y="-5"/>
      <point x="233" y="-4" type="curve" smooth="yes"/>
      <point x="164" y="28" type="line" smooth="yes"/>
      <point x="149" y="33"/>
      <point x="141" y="27"/>
      <point x="141" y="31" type="curve" smooth="yes"/>
      <point x="141" y="582" type="line"/>
      <point x="153" y="586" type="line"/>
      <point x="577" y="13" type="line" smooth="yes"/>
      <point x="577" y="12"/>
      <point x="581" y="3"/>
      <point x="581" y="-6" type="curve" smooth="yes"/>
      <point x="581" y="-7"/>
      <point x="578" y="0"/>
      <point x="571" y="0" type="curve" smooth="yes"/>
      <point x="636" y="0" type="line" smooth="yes"/>
      <point x="642" y="0"/>
      <point x="645" y="1"/>
      <point x="645" y="-1" type="curve" smooth="yes"/>
      <point x="645" y="2"/>
      <point x="641" y="0"/>
      <point x="634" y="10" type="curve" smooth="yes"/>
      <point x="594" y="64" type="line" smooth="yes"/>
      <point x="587" y="71"/>
      <point x="584" y="83"/>
      <point x="584" y="96" type="curve" smooth="yes"/>
      <point x="584" y="674" type="line" smooth="yes"/>
      <point x="584" y="667"/>
      <point x="590" y="665"/>
      <point x="596" y="667" type="curve" smooth="yes"/>
      <point x="674" y="705" type="line" smooth="yes"/>
      <point x="674" y="704"/>
      <point x="677" y="704"/>
      <point x="677" y="702" type="curve" smooth="yes"/>
      <point x="677" y="701"/>
      <point x="675" y="700"/>
      <point x="671" y="700" type="curve" smooth="yes"/>
      <point x="474" y="700" type="line" smooth="yes"/>
      <point x="472" y="700"/>
      <point x="472" y="701"/>
      <point x="472" y="702" type="curve" smooth="yes"/>
      <point x="472" y="703"/>
      <point x="474" y="704"/>
      <point x="476" y="704" type="curve" smooth="yes"/>
      <point x="552" y="672" type="line" smooth="yes"/>
      <point x="574" y="663"/>
      <point x="575" y="665"/>
      <point x="575" y="673" type="curve" smooth="yes"/>
      <point x="575" y="110" type="line"/>
      <point x="573" y="73" type="line"/>
      <point x="134" y="683" type="line" smooth="yes"/>
      <point x="124" y="697"/>
      <point x="117" y="700"/>
      <point x="107" y="700" type="curve" smooth="yes"/>
      <point x="72" y="700" type="line" smooth="yes"/>
      <point x="66" y="700"/>
      <point x="62" y="699"/>
      <point x="62" y="698" type="curve" smooth="yes"/>
      <point x="62" y="696"/>
      <point x="64" y="699"/>
      <point x="66" y="695" type="curve" smooth="yes"/>
      <point x="113" y="644" type="line" smooth="yes"/>
      <point x="125" y="632"/>
      <point x="132" y="623"/>
      <point x="132" y="608" type="curve" smooth="yes"/>
      <point x="132" y="34" type="line" smooth="yes"/>
      <point x="132" y="33"/>
      <point x="122" y="34"/>
      <point x="109" y="28" type="curve" smooth="yes"/>
      <point x="40" y="-4" type="line" smooth="yes"/>
      <point x="36" y="-4"/>
      <point x="33" y="-4"/>
      <point x="33" y="-3" type="curve" smooth="yes"/>
      <point x="33" y="-1"/>
      <point x="35" y="0"/>
      <point x="36" y="0" type="curve" smooth="yes"/>
      <point x="235" y="0" type="line" smooth="yes"/>
      <point x="238" y="0"/>
      <point x="239" y="-1"/>
    </contour>
  </outline>
</glyph>
<glyph name="O" format="2">
  <advance width="746"/>
  <unicode hex="004F"/>
  <outline>
    <contour>
      <point x="392" y="710" type="curve" smooth="yes"/>
      <point x="198" y="710"/>
      <point x="45" y="563"/>
      <point x="45" y="335" type="curve" smooth="yes"/>
      <point x="45" y="141"/>
      <point x="185" y="-10"/>
      <point x="355" y="-10" type="curve" smooth="yes"/>
      <point x="555" y="-10"/>
      <point x="701" y="149"/>
      <point x="701" y="374" type="curve" smooth="yes"/>
      <point x="701" y="562"/>
      <point x="569" y="710"/>
    </contour>
    <contour>
      <point x="658" y="330" type="curve" smooth="yes"/>
      <point x="658" y="115"/>
      <point x="540" y="1"/>
      <point x="389" y="1" type="curve" smooth="yes"/>
      <point x="218" y="1"/>
      <point x="87" y="144"/>
      <point x="87" y="378" type="curve" smooth="yes"/>
      <point x="87" y="585"/>
      <point x="206" y="701"/>
      <point x="351" y="701" type="curve" smooth="yes"/>
      <point x="524" y="701"/>
      <point x="658" y="553"/>
    </contour>
  </outline>
</glyph>
<glyph name="V" format="2">
  <advance width="552"/>
  <unicode hex="0056"/>
  <outline>
    <contour>
      <point x="388" y="703" type="curve" smooth="yes"/>
      <point x="388" y="705"/>
      <point x="390" y="706"/>
      <point x="391" y="709" type="curve" smooth="yes"/>
      <point x="470" y="677" type="line" smooth="yes"/>
      <point x="476" y="678"/>
      <point x="482" y="668"/>
      <point x="484" y="663" type="curve" smooth="yes"/>
      <point x="281" y="57" type="line"/>
      <point x="293" y="49" type="line"/>
      <point x="91" y="665" type="line" smooth="yes"/>
      <point x="84" y="692"/>
      <point x="102" y="697"/>
      <point x="127" y="699" type="curve" smooth="yes"/>
      <point x="174" y="710" type="line" smooth="yes"/>
      <point x="177" y="706"/>
      <point x="176" y="704"/>
      <point x="176" y="703" type="curve" smooth="yes"/>
      <point x="176" y="702"/>
      <point x="175" y="700"/>
      <point x="174" y="700" type="curve" smooth="yes"/>
      <point x="2" y="700" type="line" smooth="yes"/>
      <point x="-1" y="700"/>
      <point x="-4" y="700"/>
      <point x="-4" y="703" type="curve" smooth="yes"/>
      <point x="-4" y="705"/>
      <point x="-3" y="708"/>
      <point x="3" y="708" type="curve" smooth="yes"/>
      <point x="28" y="703"/>
      <point x="46" y="688"/>
      <point x="57" y="652" type="curve" smooth="yes"/>
      <point x="258" y="61" type="line" smooth="yes"/>
      <point x="253" y="71"/>
      <point x="255" y="66"/>
      <point x="255" y="56" type="curve" smooth="yes"/>
      <point x="255" y="12" type="line" smooth="yes"/>
      <point x="255" y="9"/>
      <point x="259" y="0"/>
      <point x="262" y="0" type="curve" smooth="yes"/>
      <point x="290" y="0" type="line" smooth="yes"/>
      <point x="296" y="0"/>
      <point x="299" y="4"/>
      <point x="299" y="10" type="curve" smooth="yes"/>
      <point x="299" y="56" type="line" smooth="yes"/>
      <point x="299" y="67"/>
      <point x="300" y="74"/>
      <point x="299" y="73" type="curve" smooth="yes"/>
      <point x="483" y="621" type="line" smooth="yes"/>
      <point x="503" y="682"/>
      <point x="518" y="701"/>
      <point x="540" y="708" type="curve" smooth="yes"/>
      <point x="549" y="710"/>
      <point x="552" y="706"/>
      <point x="552" y="708" type="curve" smooth="yes"/>
      <point x="552" y="703"/>
      <point x="555" y="700"/>
      <point x="553" y="700" type="curve" smooth="yes"/>
      <point x="392" y="700" type="line" smooth="yes"/>
      <point x="390" y="700"/>
      <point x="388" y="702"/>
    </contour>
  </outline>
</glyph>
<glyph name="backslash" format="2">
  <advance width="414"/>
  <unicode hex="005C"/>
  <outline>
    <contour>
      <point x="61" y="728" type="curve" smooth="yes"/>
      <point x="50" y="758"/>
      <point x="69" y="762"/>
      <point x="72" y="764" type="curve" smooth="yes"/>
      <point x="83" y="767"/>
      <point x="90" y="767"/>
      <point x="96" y="750" type="curve" smooth="yes"/>
      <point x="110" y="707"/>
      <point x="163" y="499"/>
      <point x="216" y="332" type="curve" smooth="yes"/>
      <point x="262" y="181"/>
      <point x="344" y="-38"/>
      <point x="353" y="-69" type="curve" smooth="yes"/>
      <point x="361" y="-95"/>
      <point x="354" y="-102"/>
      <point x="347" y="-107" type="curve" smooth="yes"/>
      <point x="334" y="-113"/>
      <point x="323" y="-105"/>
      <point x="318" y="-90" type="curve" smooth="yes"/>
      <point x="307" y="-48"/>
      <point x="254" y="166"/>
      <point x="198" y="329" type="curve" smooth="yes"/>
      <point x="141" y="500"/>
      <point x="74" y="695"/>
    </contour>
  </outline>
</glyph>
<glyph name="asciicircum" format="2">
  <advance width="430"/>
  <unicode hex="005E"/>
  <outline>
    <contour>
      <point x="82" y="493" type="curve" smooth="yes"/>
      <point x="154" y="661" type="line" smooth="yes"/>
      <point x="170" y="704"/>
      <point x="190" y="715"/>
      <point x="216" y="715" type="curve" smooth="yes"/>
      <point x="239" y="715"/>
      <point x="261" y="703"/>
      <point x="276" y="663" type="curve" smooth="yes"/>
      <point x="348" y="493" type="line" smooth="yes"/>
      <point x="348" y="490"/>
      <point x="350" y="482"/>
      <point x="350" y="476" type="curve" smooth="yes"/>
      <point x="350" y="466"/>
      <point x="344" y="462"/>
      <point x="332" y="462" type="curve" smooth="yes"/>
      <point x="328" y="462"/>
      <point x="320" y="465"/>
      <point x="316" y="477" type="curve" smooth="yes"/>
      <point x="189" y="682" type="line"/>
      <point x="242" y="682" type="line"/>
      <point x="116" y="477" type="line" smooth="yes"/>
      <point x="111" y="465"/>
      <point x="102" y="462"/>
      <point x="98" y="462" type="curve" smooth="yes"/>
      <point x="86" y="462"/>
      <point x="79" y="466"/>
      <point x="79" y="477" type="curve" smooth="yes"/>
      <point x="79" y="483"/>
      <point x="82" y="490"/>
    </contour>
  </outline>
</glyph>
<glyph name="grave" format="2">
  <advance width="243"/>
  <unicode hex="0060"/>
  <anchor x="194" y="489" name="center"/>
  <outline>
    <contour>
      <point x="189" y="517" type="curve" smooth="yes"/>
      <point x="96" y="655" type="line" smooth="yes"/>
      <point x="95" y="667"/>
      <point x="97" y="672"/>
      <point x="85" y="672" type="curve" smooth="yes"/>
      <point x="79" y="672"/>
      <point x="73" y="662"/>
      <point x="73" y="656" type="curve" smooth="yes"/>
      <point x="73" y="646"/>
      <point x="74" y="640"/>
      <point x="78" y="628" type="curve" smooth="yes"/>
      <point x="194" y="519" type="line" smooth="yes"/>
      <point x="191" y="516"/>
      <point x="189" y="516"/>
      <point x="188" y="516" type="curve" smooth="yes"/>
      <point x="187" y="516"/>
      <point x="187" y="514"/>
      <point x="187" y="515" type="curve" smooth="yes"/>
      <point x="187" y="516"/>
      <point x="187" y="517"/>
    </contour>
  </outline>
</glyph>
<glyph name="d" format="2">
  <advance width="459"/>
  <unicode hex="0064"/>
  <outline>
    <contour>
      <point x="389" y="699" type="line" smooth="yes"/>
      <point x="389" y="703"/>
      <point x="385" y="708"/>
      <point x="379" y="708" type="curve" smooth="yes"/>
      <point x="377" y="708"/>
      <point x="374" y="704"/>
      <point x="367" y="702" type="curve" smooth="yes"/>
      <point x="271" y="664" type="line" smooth="yes"/>
      <point x="270" y="664"/>
      <point x="268" y="659"/>
      <point x="268" y="661" type="curve" smooth="yes"/>
      <point x="268" y="663"/>
      <point x="268" y="662"/>
      <point x="270" y="662" type="curve" smooth="yes"/>
      <point x="327" y="662" type="line" smooth="yes"/>
      <point x="343" y="662"/>
      <point x="352" y="655"/>
      <point x="352" y="644" type="curve" smooth="yes"/>
      <point x="352" y="4" type="line" smooth="yes"/>
      <point x="352" y="1"/>
      <point x="352" y="0"/>
      <point x="353" y="0" type="curve" smooth="yes"/>
      <point x="449" y="0" type="line" smooth="yes"/>
      <point x="451" y="0"/>
      <point x="452" y="0"/>
      <point x="452" y="0" type="curve" smooth="yes"/>
      <point x="452" y="-1"/>
      <point x="448" y="-3"/>
      <point x="445" y="-1" type="curve" smooth="yes"/>
      <point x="408" y="10" type="line" smooth="yes"/>
      <point x="395" y="15"/>
      <point x="389" y="20"/>
      <point x="389" y="36" type="curve" smooth="yes"/>
    </contour>
    <contour>
      <point x="371" y="66" type="line"/>
      <point x="322" y="22"/>
      <point x="265" y="9"/>
      <point x="228" y="9" type="curve" smooth="yes"/>
      <point x="121" y="9"/>
      <point x="57" y="90"/>
      <point x="57" y="227" type="curve" smooth="yes"/>
      <point x="57" y="354"/>
      <point x="135" y="435"/>
      <point x="221" y="435" type="curve" smooth="yes"/>
      <point x="293" y="435"/>
      <point x="328" y="416"/>
      <point x="364" y="359" type="curve"/>
      <point x="368" y="347" type="line"/>
      <point x="327" y="405"/>
      <point x="295" y="436"/>
      <point x="236" y="436" type="curve" smooth="yes"/>
      <point x="121" y="436"/>
      <point x="24" y="332"/>
      <point x="24" y="196" type="curve" smooth="yes"/>
      <point x="24" y="74"/>
      <point x="97" y="-10"/>
      <point x="188" y="-10" type="curve" smooth="yes"/>
      <point x="259" y="-10"/>
      <point x="313" y="14"/>
      <point x="373" y="77" type="curve"/>
    </contour>
  </outline>
</glyph>
<glyph name="e" format="2">
  <advance width="367"/>
  <unicode hex="0065"/>
  <anchor x="219" y="491" name="center"/>
  <outline>
    <contour>
      <point x="346" y="274" type="curve" smooth="yes"/>
      <point x="346" y="369"/>
      <point x="288" y="436"/>
      <point x="201" y="436" type="curve" smooth="yes"/>
      <point x="93" y="436"/>
      <point x="20" y="330"/>
      <point x="20" y="200" type="curve" smooth="yes"/>
      <point x="20" y="68"/>
      <point x="87" y="-10"/>
      <point x="198" y="-10" type="curve" smooth="yes"/>
      <point x="276" y="-10"/>
      <point x="347" y="49"/>
      <point x="347" y="128" type="curve" smooth="yes"/>
      <point x="347" y="130"/>
      <point x="346" y="131"/>
      <point x="345" y="131" type="curve" smooth="yes"/>
      <point x="344" y="131"/>
      <point x="343" y="130"/>
      <point x="343" y="128" type="curve" smooth="yes"/>
      <point x="343" y="56"/>
      <point x="285" y="8"/>
      <point x="214" y="8" type="curve" smooth="yes"/>
      <point x="114" y="8"/>
      <point x="45" y="86"/>
      <point x="45" y="226" type="curve" smooth="yes"/>
      <point x="45" y="345"/>
      <point x="98" y="432"/>
      <point x="198" y="432" type="curve" smooth="yes"/>
      <point x="271" y="432"/>
      <point x="317" y="374"/>
      <point x="317" y="279" type="curve" smooth="yes"/>
      <point x="317" y="275"/>
      <point x="314" y="272"/>
      <point x="310" y="272" type="curve" smooth="yes"/>
      <point x="34" y="272" type="line"/>
      <point x="34" y="268" type="line"/>
      <point x="339" y="268" type="line" smooth="yes"/>
      <point x="343" y="268"/>
      <point x="346" y="270"/>
    </contour>
  </outline>
</glyph>
<glyph name="g" format="2">
  <advance width="415"/>
  <unicode hex="0067"/>
  <outline>
    <contour>
      <point x="303" y="-16" type="curve" smooth="yes"/>
      <point x="402" y="-49"/>
      <point x="414" y="-87"/>
      <point x="414" y="-126" type="curve" smooth="yes"/>
      <point x="414" y="-196"/>
      <point x="345" y="-247"/>
      <point x="228" y="-247" type="curve" smooth="yes"/>
      <point x="99" y="-247"/>
      <point x="32" y="-198"/>
      <point x="32" y="-137" type="curve" smooth="yes"/>
      <point x="32" y="-85"/>
      <point x="73" y="-31"/>
      <point x="195" y="-10" type="curve"/>
      <point x="197" y="-25" type="line"/>
      <point x="107" y="-34"/>
      <point x="62" y="-83"/>
      <point x="62" y="-133" type="curve" smooth="yes"/>
      <point x="62" y="-199"/>
      <point x="116" y="-244"/>
      <point x="244" y="-244" type="curve" smooth="yes"/>
      <point x="343" y="-244"/>
      <point x="393" y="-209"/>
      <point x="393" y="-154" type="curve" smooth="yes"/>
      <point x="393" y="-117"/>
      <point x="371" y="-86"/>
      <point x="276" y="-55" type="curve" smooth="yes"/>
      <point x="151" y="-17"/>
      <point x="118" y="17"/>
      <point x="118" y="54" type="curve" smooth="yes"/>
      <point x="118" y="69"/>
      <point x="141" y="101"/>
      <point x="177" y="116" type="curve"/>
      <point x="175" y="108" type="line"/>
      <point x="156" y="103"/>
      <point x="142" y="90"/>
      <point x="142" y="70" type="curve" smooth="yes"/>
      <point x="142" y="38"/>
      <point x="171" y="15"/>
    </contour>
    <contour>
      <point x="370" y="274" type="curve" smooth="yes"/>
      <point x="370" y="177"/>
      <point x="301" y="102"/>
      <point x="205" y="102" type="curve" smooth="yes"/>
      <point x="101" y="102"/>
      <point x="37" y="175"/>
      <point x="37" y="259" type="curve" smooth="yes"/>
      <point x="37" y="361"/>
      <point x="103" y="436"/>
      <point x="208" y="436" type="curve" smooth="yes"/>
      <point x="314" y="436"/>
      <point x="370" y="358"/>
    </contour>
    <contour>
      <point x="316" y="418" type="line" smooth="yes"/>
      <point x="320" y="422" type="line" smooth="yes"/>
      <point x="337" y="447"/>
      <point x="361" y="457"/>
      <point x="385" y="457" type="curve" smooth="yes"/>
      <point x="403" y="457"/>
      <point x="426" y="439"/>
      <point x="426" y="418" type="curve" smooth="yes"/>
      <point x="426" y="410"/>
      <point x="415" y="396"/>
      <point x="411" y="396" type="curve" smooth="yes"/>
      <point x="394" y="396"/>
      <point x="388" y="404"/>
      <point x="382" y="417" type="curve" smooth="yes"/>
      <point x="373" y="432"/>
      <point x="358" y="441"/>
      <point x="344" y="441" type="curve" smooth="yes"/>
      <point x="331" y="441"/>
      <point x="319" y="429"/>
      <point x="306" y="407" type="curve"/>
    </contour>
    <contour>
      <point x="187" y="429" type="curve" smooth="yes"/>
      <point x="124" y="429"/>
      <point x="76" y="373"/>
      <point x="76" y="294" type="curve" smooth="yes"/>
      <point x="76" y="201"/>
      <point x="136" y="110"/>
      <point x="228" y="110" type="curve" smooth="yes"/>
      <point x="279" y="110"/>
      <point x="333" y="156"/>
      <point x="333" y="236" type="curve" smooth="yes"/>
      <point x="333" y="347"/>
      <point x="272" y="429"/>
    </contour>
  </outline>
</glyph>
<glyph name="h" format="2">
  <advance width="475"/>
  <unicode hex="0068"/>
  <outline>
    <contour>
      <point x="116" y="350" type="line" smooth="yes"/>
      <point x="119" y="349" type="line"/>
      <point x="144" y="372" type="line" smooth="yes"/>
      <point x="190" y="414"/>
      <point x="218" y="436"/>
      <point x="258" y="436" type="curve" smooth="yes"/>
      <point x="316" y="436"/>
      <point x="356" y="394"/>
      <point x="372" y="313" type="curve" smooth="yes"/>
      <point x="427" y="20" type="line" smooth="yes"/>
      <point x="427" y="20"/>
      <point x="436" y="16"/>
      <point x="447" y="9" type="curve" smooth="yes"/>
      <point x="474" y="-6" type="line" smooth="yes"/>
      <point x="474" y="-8"/>
      <point x="473" y="-6"/>
      <point x="473" y="-2" type="curve" smooth="yes"/>
      <point x="473" y="1"/>
      <point x="475" y="0"/>
      <point x="468" y="0" type="curve" smooth="yes"/>
      <point x="337" y="0" type="line" smooth="yes"/>
      <point x="331" y="0"/>
      <point x="327" y="1"/>
      <point x="327" y="-1" type="curve" smooth="yes"/>
      <point x="327" y="-2"/>
      <point x="328" y="-2"/>
      <point x="331" y="-1" type="curve" smooth="yes"/>
      <point x="374" y="10" type="line" smooth="yes"/>
      <point x="387" y="13"/>
      <point x="393" y="21"/>
      <point x="391" y="27" type="curve" smooth="yes"/>
      <point x="346" y="316" type="line" smooth="yes"/>
      <point x="335" y="388"/>
      <point x="301" y="422"/>
      <point x="247" y="422" type="curve" smooth="yes"/>
      <point x="205" y="422"/>
      <point x="172" y="401"/>
      <point x="135" y="367" type="curve" smooth="yes"/>
    </contour>
    <component base="l" xOffset="14"/>
  </outline>
</glyph>
<glyph name="k" format="2">
  <advance width="449"/>
  <unicode hex="006B"/>
  <outline>
    <contour>
      <point x="224" y="277" type="line"/>
      <point x="387" y="42" type="line" smooth="yes"/>
      <point x="408" y="10"/>
      <point x="423" y="-2"/>
      <point x="450" y="-4" type="curve" smooth="yes"/>
      <point x="456" y="-2"/>
      <point x="460" y="1"/>
      <point x="460" y="-1" type="curve" smooth="yes"/>
      <point x="460" y="-1"/>
      <point x="462" y="0"/>
      <point x="458" y="0" type="curve" smooth="yes"/>
      <point x="301" y="0" type="line" smooth="yes"/>
      <point x="296" y="0"/>
      <point x="292" y="0"/>
      <point x="292" y="-1" type="curve" smooth="yes"/>
      <point x="292" y="2"/>
      <point x="296" y="5"/>
      <point x="307" y="1" type="curve" smooth="yes"/>
      <point x="333" y="1"/>
      <point x="343" y="6"/>
      <point x="343" y="22" type="curve" smooth="yes"/>
      <point x="343" y="31"/>
      <point x="340" y="39"/>
      <point x="334" y="47" type="curve" smooth="yes"/>
      <point x="196" y="261" type="line"/>
    </contour>
    <contour>
      <point x="100" y="196" type="line"/>
      <point x="295" y="359" type="line" smooth="yes"/>
      <point x="324" y="383"/>
      <point x="334" y="394"/>
      <point x="334" y="404" type="curve" smooth="yes"/>
      <point x="334" y="414"/>
      <point x="330" y="421"/>
      <point x="301" y="424" type="curve" smooth="yes"/>
      <point x="294" y="423"/>
      <point x="290" y="424"/>
      <point x="290" y="425" type="curve" smooth="yes"/>
      <point x="290" y="427"/>
      <point x="293" y="428"/>
      <point x="300" y="428" type="curve" smooth="yes"/>
      <point x="410" y="426" type="line" smooth="yes"/>
      <point x="421" y="426"/>
      <point x="422" y="425"/>
      <point x="422" y="424" type="curve" smooth="yes"/>
      <point x="422" y="423"/>
      <point x="420" y="424"/>
      <point x="421" y="426" type="curve" smooth="yes"/>
      <point x="383" y="417"/>
      <point x="348" y="394"/>
      <point x="319" y="373" type="curve" smooth="yes"/>
      <point x="92" y="192" type="line"/>
    </contour>
    <component base="l"/>
  </outline>
</glyph>
<glyph name="l" format="2">
  <advance width="182"/>
  <unicode hex="006C"/>
  <outline>
    <contour>
      <point x="105" y="712" type="line" smooth="yes"/>
      <point x="105" y="714"/>
      <point x="104" y="716"/>
      <point x="102" y="716" type="curve" smooth="yes"/>
      <point x="101" y="716"/>
      <point x="100" y="716"/>
      <point x="97" y="715" type="curve" smooth="yes"/>
      <point x="22" y="694" type="line" smooth="yes"/>
      <point x="20" y="693"/>
      <point x="19" y="693"/>
      <point x="19" y="691" type="curve" smooth="yes"/>
      <point x="19" y="690"/>
      <point x="20" y="689"/>
      <point x="21" y="689" type="curve" smooth="yes"/>
      <point x="73" y="689" type="line" smooth="yes"/>
      <point x="76" y="689"/>
      <point x="77" y="687"/>
      <point x="77" y="685" type="curve" smooth="yes"/>
      <point x="77" y="20" type="line" smooth="yes"/>
      <point x="77" y="15"/>
      <point x="73" y="11"/>
      <point x="65" y="10" type="curve" smooth="yes"/>
      <point x="26" y="6" type="line" smooth="yes"/>
      <point x="21" y="6"/>
      <point x="19" y="3"/>
      <point x="19" y="2" type="curve" smooth="yes"/>
      <point x="19" y="1"/>
      <point x="20" y="0"/>
      <point x="21" y="0" type="curve" smooth="yes"/>
      <point x="158" y="0" type="line" smooth="yes"/>
      <point x="160" y="0"/>
      <point x="161" y="1"/>
      <point x="161" y="2" type="curve" smooth="yes"/>
      <point x="161" y="4"/>
      <point x="160" y="5"/>
      <point x="157" y="5" type="curve" smooth="yes"/>
      <point x="117" y="10" type="line" smooth="yes"/>
      <point x="109" y="11"/>
      <point x="105" y="15"/>
      <point x="105" y="21" type="curve" smooth="yes"/>
    </contour>
  </outline>
</glyph>
<glyph name="n" format="2">
  <advance width="442"/>
  <unicode hex="006E"/>
  <outline>
    <contour>
      <point x="105" y="426" type="line" smooth="yes"/>
      <point x="105" y="428"/>
      <point x="104" y="430"/>
      <point x="102" y="430" type="curve" smooth="yes"/>
      <point x="101" y="430"/>
      <point x="98" y="430"/>
      <point x="94" y="429" type="curve" smooth="yes"/>
      <point x="22" y="418" type="line" smooth="yes"/>
      <point x="20" y="418"/>
      <point x="19" y="417"/>
      <point x="19" y="415" type="curve" smooth="yes"/>
      <point x="19" y="414"/>
      <point x="20" y="413"/>
      <point x="21" y="413" type="curve" smooth="yes"/>
      <point x="73" y="413" type="line" smooth="yes"/>
      <point x="76" y="413"/>
      <point x="77" y="411"/>
      <point x="77" y="409" type="curve" smooth="yes"/>
      <point x="77" y="20" type="line" smooth="yes"/>
      <point x="77" y="15"/>
      <point x="73" y="11"/>
      <point x="65" y="10" type="curve" smooth="yes"/>
      <point x="26" y="6" type="line" smooth="yes"/>
      <point x="21" y="6"/>
      <point x="19" y="3"/>
      <point x="19" y="2" type="curve" smooth="yes"/>
      <point x="19" y="1"/>
      <point x="20" y="0"/>
      <point x="21" y="0" type="curve" smooth="yes"/>
      <point x="158" y="0" type="line" smooth="yes"/>
      <point x="160" y="0"/>
      <point x="161" y="1"/>
      <point x="161" y="2" type="curve" smooth="yes"/>
      <point x="161" y="4"/>
      <point x="160" y="5"/>
      <point x="157" y="5" type="curve" smooth="yes"/>
      <point x="117" y="10" type="line" smooth="yes"/>
      <point x="109" y="11"/>
      <point x="105" y="15"/>
      <point x="105" y="21" type="curve" smooth="yes"/>
    </contour>
    <contour>
      <point x="91" y="349" type="line" smooth="yes"/>
      <point x="116" y="372" type="line" smooth="yes"/>
      <point x="153" y="406"/>
      <point x="189" y="422"/>
      <point x="219" y="422" type="curve" smooth="yes"/>
      <point x="276" y="422"/>
      <point x="309" y="387"/>
      <point x="320" y="318" type="curve" smooth="yes"/>
      <point x="365" y="26" type="line" smooth="yes"/>
      <point x="366" y="18"/>
      <point x="362" y="9"/>
      <point x="349" y="8" type="curve" smooth="yes"/>
      <point x="317" y="5" type="line" smooth="yes"/>
      <point x="314" y="5"/>
      <point x="312" y="4"/>
      <point x="312" y="2" type="curve" smooth="yes"/>
      <point x="312" y="1"/>
      <point x="314" y="0"/>
      <point x="316" y="0" type="curve" smooth="yes"/>
      <point x="431" y="0" type="line" smooth="yes"/>
      <point x="433" y="0"/>
      <point x="434" y="1"/>
      <point x="434" y="2" type="curve" smooth="yes"/>
      <point x="434" y="3"/>
      <point x="433" y="4"/>
      <point x="431" y="4" type="curve" smooth="yes"/>
      <point x="412" y="6" type="line" smooth="yes"/>
      <point x="399" y="7"/>
      <point x="394" y="15"/>
      <point x="392" y="26" type="curve" smooth="yes"/>
      <point x="347" y="320" type="line" smooth="yes"/>
      <point x="335" y="396"/>
      <point x="291" y="435"/>
      <point x="233" y="435" type="curve" smooth="yes"/>
      <point x="197" y="435"/>
      <point x="163" y="419"/>
      <point x="114" y="374" type="curve" smooth="yes"/>
      <point x="89" y="351" type="line"/>
    </contour>
  </outline>
</glyph>
<glyph name="q" format="2">
  <advance width="455"/>
  <unicode hex="0071"/>
  <outline>
    <contour>
      <point x="394" y="-199" type="curve" smooth="yes"/>
      <point x="394" y="434" type="line" smooth="yes"/>
      <point x="394" y="434"/>
      <point x="394" y="434"/>
      <point x="396" y="434" type="curve" smooth="yes"/>
      <point x="393" y="434"/>
      <point x="395" y="430"/>
      <point x="397" y="428" type="curve" smooth="yes"/>
      <point x="366" y="385" type="line" smooth="yes"/>
      <point x="366" y="-190" type="line" smooth="yes"/>
      <point x="366" y="-212"/>
      <point x="356" y="-223"/>
      <point x="336" y="-225" type="curve" smooth="yes"/>
      <point x="277" y="-234" type="line" smooth="yes"/>
      <point x="272" y="-234"/>
      <point x="272" y="-234"/>
      <point x="272" y="-236" type="curve" smooth="yes"/>
      <point x="272" y="-235"/>
      <point x="272" y="-236"/>
      <point x="276" y="-236" type="curve" smooth="yes"/>
      <point x="437" y="-236" type="line" smooth="yes"/>
      <point x="443" y="-236"/>
      <point x="446" y="-235"/>
      <point x="446" y="-235" type="curve" smooth="yes"/>
      <point x="445" y="-234"/>
      <point x="443" y="-233"/>
      <point x="438" y="-232" type="curve" smooth="yes"/>
      <point x="416" y="-226" type="line" smooth="yes"/>
      <point x="403" y="-222"/>
      <point x="394" y="-214"/>
    </contour>
    <contour>
      <point x="375" y="66" type="line"/>
      <point x="326" y="22"/>
      <point x="269" y="9"/>
      <point x="232" y="9" type="curve" smooth="yes"/>
      <point x="125" y="9"/>
      <point x="61" y="90"/>
      <point x="61" y="227" type="curve" smooth="yes"/>
      <point x="61" y="354"/>
      <point x="139" y="435"/>
      <point x="226" y="435" type="curve" smooth="yes"/>
      <point x="298" y="435"/>
      <point x="333" y="416"/>
      <point x="368" y="359" type="curve"/>
      <point x="372" y="347" type="line"/>
      <point x="332" y="405"/>
      <point x="299" y="436"/>
      <point x="241" y="436" type="curve" smooth="yes"/>
      <point x="126" y="436"/>
      <point x="28" y="332"/>
      <point x="28" y="196" type="curve" smooth="yes"/>
      <point x="28" y="74"/>
      <point x="102" y="-10"/>
      <point x="192" y="-10" type="curve" smooth="yes"/>
      <point x="263" y="-10"/>
      <point x="318" y="14"/>
      <point x="377" y="77" type="curve"/>
    </contour>
  </outline>
</glyph>
<glyph name="r" format="2">
  <advance width="310"/>
  <unicode hex="0072"/>
  <outline>
    <contour>
      <point x="100" y="219" type="line"/>
      <point x="102" y="366"/>
      <point x="164" y="436"/>
      <point x="228" y="436" type="curve" smooth="yes"/>
      <point x="271" y="436"/>
      <point x="303" y="408"/>
      <point x="303" y="386" type="curve" smooth="yes"/>
      <point x="303" y="375"/>
      <point x="296" y="364"/>
      <point x="284" y="364" type="curve" smooth="yes"/>
      <point x="270" y="364"/>
      <point x="255" y="376"/>
      <point x="257" y="405" type="curve" smooth="yes"/>
      <point x="260" y="433"/>
      <point x="250" y="444"/>
      <point x="231" y="444" type="curve" smooth="yes"/>
      <point x="180" y="444"/>
      <point x="120" y="365"/>
      <point x="120" y="219" type="curve"/>
    </contour>
    <contour>
      <point x="120" y="430" type="curve" smooth="yes"/>
      <point x="120" y="24" type="line" smooth="yes"/>
      <point x="120" y="10"/>
      <point x="129" y="5"/>
      <point x="140" y="4" type="curve" smooth="yes"/>
      <point x="189" y="-3" type="line" smooth="yes"/>
      <point x="186" y="-2"/>
      <point x="188" y="0"/>
      <point x="188" y="1" type="curve" smooth="yes"/>
      <point x="188" y="0"/>
      <point x="190" y="0"/>
      <point x="182" y="0" type="curve" smooth="yes"/>
      <point x="32" y="0" type="line" smooth="yes"/>
      <point x="31" y="0"/>
      <point x="28" y="-1"/>
      <point x="28" y="-1" type="curve" smooth="yes"/>
      <point x="28" y="3"/>
      <point x="32" y="6"/>
      <point x="41" y="6" type="curve" smooth="yes"/>
      <point x="77" y="11" type="line" smooth="yes"/>
      <point x="85" y="11"/>
      <point x="90" y="14"/>
      <point x="90" y="25" type="curve" smooth="yes"/>
      <point x="90" y="379" type="line" smooth="yes"/>
      <point x="90" y="391"/>
      <point x="82" y="394"/>
      <point x="69" y="394" type="curve" smooth="yes"/>
      <point x="22" y="394" type="line" smooth="yes"/>
      <point x="23" y="394"/>
      <point x="23" y="395"/>
      <point x="23" y="392" type="curve" smooth="yes"/>
      <point x="23" y="392"/>
      <point x="28" y="390"/>
      <point x="30" y="392" type="curve" smooth="yes"/>
      <point x="106" y="432" type="line" smooth="yes"/>
      <point x="109" y="435"/>
      <point x="111" y="436"/>
      <point x="113" y="436" type="curve" smooth="yes"/>
      <point x="115" y="436"/>
      <point x="120" y="433"/>
    </contour>
  </outline>
</glyph>
<glyph name="s" format="2">
  <advance width="323"/>
  <unicode hex="0073"/>
  <outline>
    <contour>
      <point x="182" y="-7" type="curve" smooth="yes"/>
      <point x="131" y="-7"/>
      <point x="81" y="20"/>
      <point x="35" y="112" type="curve" smooth="yes"/>
      <point x="34" y="114"/>
      <point x="34" y="115"/>
      <point x="32" y="115" type="curve" smooth="yes"/>
      <point x="31" y="115"/>
      <point x="30" y="114"/>
      <point x="30" y="113" type="curve" smooth="yes"/>
      <point x="30" y="111"/>
      <point x="30" y="110"/>
      <point x="31" y="106" type="curve" smooth="yes"/>
      <point x="60" y="-6" type="line" smooth="yes"/>
      <point x="61" y="-9"/>
      <point x="63" y="-9"/>
      <point x="64" y="-9" type="curve" smooth="yes"/>
      <point x="70" y="-9"/>
      <point x="87" y="18"/>
      <point x="90" y="18" type="curve" smooth="yes"/>
      <point x="97" y="18"/>
      <point x="127" y="-11"/>
      <point x="181" y="-11" type="curve" smooth="yes"/>
      <point x="251.0" y="-11.0"/>
      <point x="291.0" y="33.09433962264151"/>
      <point x="291" y="103" type="curve" smooth="yes"/>
      <point x="291.0" y="164.10680576254347"/>
      <point x="250.10649167924498" y="201.9704189779875"/>
      <point x="160" y="227" type="curve" smooth="yes"/>
      <point x="65.128006551124" y="253.96361919073317"/>
      <point x="39.0" y="288.1911547911548"/>
      <point x="39" y="335" type="curve" smooth="yes"/>
      <point x="39.0" y="389.6914893617021"/>
      <point x="84.0" y="432.0"/>
      <point x="146" y="432" type="curve" smooth="yes"/>
      <point x="214" y="432"/>
      <point x="260" y="395"/>
      <point x="294" y="307" type="curve" smooth="yes"/>
      <point x="295" y="305"/>
      <point x="296" y="304"/>
      <point x="298" y="304" type="curve" smooth="yes"/>
      <point x="300" y="304"/>
      <point x="301" y="305"/>
      <point x="301" y="307" type="curve" smooth="yes"/>
      <point x="301" y="308"/>
      <point x="301" y="309"/>
      <point x="300" y="311" type="curve" smooth="yes"/>
      <point x="265" y="433" type="line" smooth="yes"/>
      <point x="264" y="436"/>
      <point x="263" y="436"/>
      <point x="262" y="436" type="curve" smooth="yes"/>
      <point x="260" y="436"/>
      <point x="235" y="419"/>
      <point x="227" y="419" type="curve" smooth="yes"/>
      <point x="222" y="419"/>
      <point x="193" y="436"/>
      <point x="146" y="436" type="curve" smooth="yes"/>
      <point x="73.0" y="436.0"/>
      <point x="19.0" y="378.4727272727273"/>
      <point x="19" y="323" type="curve" smooth="yes"/>
      <point x="19.0" y="264.4954018392643"/>
      <point x="53.87568554242799" y="227.03625838345852"/>
      <point x="150" y="199" type="curve" smooth="yes"/>
      <point x="243.87533135658128" y="172.03580907842877"/>
      <point x="276.0" y="138.46802490096206"/>
      <point x="276" y="87" type="curve" smooth="yes"/>
      <point x="276.0" y="31.255813953488364"/>
      <point x="239.0" y="-7.0"/>
    </contour>
  </outline>
</glyph>
<glyph name="x" format="2">
  <advance width="390"/>
  <unicode hex="0078"/>
  <outline>
    <contour>
      <point x="218" y="196" type="line"/>
      <point x="108" y="48" type="line" smooth="yes"/>
      <point x="78" y="8"/>
      <point x="50" y="-6"/>
      <point x="5" y="-17" type="curve" smooth="yes"/>
      <point x="5" y="-16"/>
      <point x="0" y="-8"/>
      <point x="0" y="-11" type="curve" smooth="yes"/>
      <point x="0" y="-3"/>
      <point x="-4" y="0"/>
      <point x="-3" y="0" type="curve" smooth="yes"/>
      <point x="160" y="0" type="line" smooth="yes"/>
      <point x="161" y="0"/>
      <point x="161" y="0"/>
      <point x="161" y="-2" type="curve" smooth="yes"/>
      <point x="161" y="-7"/>
      <point x="162" y="-9"/>
      <point x="158" y="-10" type="curve" smooth="yes"/>
      <point x="135" y="1" type="line" smooth="yes"/>
      <point x="116" y="8"/>
      <point x="106" y="17"/>
      <point x="106" y="31" type="curve" smooth="yes"/>
      <point x="106" y="40"/>
      <point x="108" y="43"/>
      <point x="123" y="63" type="curve" smooth="yes"/>
      <point x="221" y="197" type="line"/>
    </contour>
    <contour>
      <point x="100" y="368" type="line" smooth="yes"/>
      <point x="93" y="377"/>
      <point x="89" y="386"/>
      <point x="89" y="393" type="curve" smooth="yes"/>
      <point x="89" y="404"/>
      <point x="96" y="410"/>
      <point x="102" y="414" type="curve" smooth="yes"/>
      <point x="114" y="423" type="line" smooth="yes"/>
      <point x="121" y="427"/>
      <point x="126" y="424"/>
      <point x="126" y="425" type="curve" smooth="yes"/>
      <point x="126" y="426"/>
      <point x="124" y="426"/>
      <point x="123" y="426" type="curve" smooth="yes"/>
      <point x="3" y="426" type="line" smooth="yes"/>
      <point x="-1" y="426"/>
      <point x="0" y="426"/>
      <point x="0" y="428" type="curve" smooth="yes"/>
      <point x="0" y="427"/>
      <point x="1" y="426"/>
      <point x="6" y="425" type="curve" smooth="yes"/>
      <point x="29" y="416"/>
      <point x="41" y="402"/>
      <point x="59" y="376" type="curve" smooth="yes"/>
      <point x="314" y="25" type="line" smooth="yes"/>
      <point x="310" y="28"/>
      <point x="319" y="27"/>
      <point x="319" y="21" type="curve" smooth="yes"/>
      <point x="319" y="17"/>
      <point x="319" y="15"/>
      <point x="313" y="14" type="curve" smooth="yes"/>
      <point x="263" y="0" type="line" smooth="yes"/>
      <point x="259" y="1"/>
      <point x="257" y="2"/>
      <point x="257" y="-1" type="curve" smooth="yes"/>
      <point x="257" y="0"/>
      <point x="260" y="0"/>
      <point x="263" y="0" type="curve" smooth="yes"/>
      <point x="388" y="0" type="line" smooth="yes"/>
      <point x="391" y="0"/>
      <point x="393" y="1"/>
      <point x="393" y="1" type="curve" smooth="yes"/>
      <point x="393" y="0"/>
      <point x="391" y="0"/>
      <point x="384" y="2" type="curve" smooth="yes"/>
      <point x="373" y="4"/>
      <point x="354" y="15"/>
      <point x="332" y="45" type="curve" smooth="yes"/>
    </contour>
    <contour>
      <point x="181" y="214" type="line"/>
      <point x="331" y="396" type="line" smooth="yes"/>
      <point x="353" y="422"/>
      <point x="369" y="430"/>
      <point x="388" y="439" type="curve" smooth="yes"/>
      <point x="388" y="442"/>
      <point x="391" y="437"/>
      <point x="391" y="434" type="curve" smooth="yes"/>
      <point x="391" y="429"/>
      <point x="394" y="426"/>
      <point x="391" y="426" type="curve" smooth="yes"/>
      <point x="258" y="426" type="line" smooth="yes"/>
      <point x="256" y="426"/>
      <point x="254" y="426"/>
      <point x="254" y="426" type="curve" smooth="yes"/>
      <point x="254" y="426"/>
      <point x="260" y="429"/>
      <point x="261" y="430" type="curve" smooth="yes"/>
      <point x="288" y="416" type="line" smooth="yes"/>
      <point x="301" y="410"/>
      <point x="306" y="401"/>
      <point x="306" y="389" type="curve" smooth="yes"/>
      <point x="306" y="372"/>
      <point x="297" y="360"/>
      <point x="288" y="349" type="curve" smooth="yes"/>
      <point x="189" y="228" type="line"/>
    </contour>
  </outline>
</glyph>
<glyph name="y" format="2">
  <advance width="394"/>
  <unicode hex="0079"/>
  <anchor x="212" y="474" name="center"/>
  <outline>
    <contour>
      <point x="206" y="32" type="line"/>
      <point x="63" y="398" type="line" smooth="yes"/>
      <point x="63" y="400"/>
      <point x="61" y="406"/>
      <point x="61" y="414" type="curve" smooth="yes"/>
      <point x="61" y="418"/>
      <point x="65" y="420"/>
      <point x="76" y="420" type="curve" smooth="yes"/>
      <point x="124" y="433" type="line" smooth="yes"/>
      <point x="132" y="433"/>
      <point x="134" y="431"/>
      <point x="134" y="428" type="curve" smooth="yes"/>
      <point x="134" y="427"/>
      <point x="133" y="425"/>
      <point x="128" y="425" type="curve" smooth="yes"/>
      <point x="10" y="425" type="line" smooth="yes"/>
      <point x="2" y="425"/>
      <point x="-3" y="425"/>
      <point x="-3" y="427" type="curve" smooth="yes"/>
      <point x="-3" y="426"/>
      <point x="-2" y="426"/>
      <point x="-3" y="427" type="curve" smooth="yes"/>
      <point x="19" y="421"/>
      <point x="30" y="408"/>
      <point x="41" y="379" type="curve" smooth="yes"/>
      <point x="191" y="-15" type="line"/>
    </contour>
    <contour>
      <point x="113" y="-186" type="line" smooth="yes"/>
      <point x="103" y="-212"/>
      <point x="93" y="-217"/>
      <point x="74" y="-217" type="curve" smooth="yes"/>
      <point x="61" y="-217"/>
      <point x="55" y="-207"/>
      <point x="42" y="-186" type="curve" smooth="yes"/>
      <point x="38" y="-184" type="line" smooth="yes"/>
      <point x="26" y="-170"/>
      <point x="21" y="-168"/>
      <point x="16" y="-168" type="curve" smooth="yes"/>
      <point x="-4" y="-168"/>
      <point x="-14" y="-180"/>
      <point x="-14" y="-193" type="curve" smooth="yes"/>
      <point x="-14" y="-223"/>
      <point x="10" y="-245"/>
      <point x="44" y="-245" type="curve" smooth="yes"/>
      <point x="72" y="-245"/>
      <point x="99" y="-234"/>
      <point x="121" y="-179" type="curve" smooth="yes"/>
      <point x="349" y="388" type="line" smooth="yes"/>
      <point x="367" y="435"/>
      <point x="374" y="437"/>
      <point x="395" y="440" type="curve" smooth="yes"/>
      <point x="396" y="435"/>
      <point x="397" y="430"/>
      <point x="397" y="435" type="curve" smooth="yes"/>
      <point x="397" y="426"/>
      <point x="399" y="425"/>
      <point x="396" y="425" type="curve" smooth="yes"/>
      <point x="261" y="425" type="line" smooth="yes"/>
      <point x="263" y="425"/>
      <point x="261" y="429"/>
      <point x="261" y="428" type="curve" smooth="yes"/>
      <point x="261" y="430"/>
      <point x="262" y="428"/>
      <point x="270" y="432" type="curve" smooth="yes"/>
      <point x="309" y="421" type="line" smooth="yes"/>
      <point x="327" y="421"/>
      <point x="335" y="409"/>
      <point x="335" y="395" type="curve" smooth="yes"/>
      <point x="335" y="377"/>
      <point x="325" y="363"/>
      <point x="329" y="369" type="curve" smooth="yes"/>
    </contour>
  </outline>
</glyph>
<glyph name="currency" format="2">
  <advance width="474"/>
  <unicode hex="00A4"/>
  <outline>
    <contour>
      <point x="237" y="159" type="curve" smooth="yes"/>
      <point x="150" y="159"/>
      <point x="78" y="234"/>
      <point x="78" y="320" type="curve" smooth="yes"/>
      <point x="78" y="408"/>
      <point x="150" y="479"/>
      <point x="237" y="479" type="curve" smooth="yes"/>
      <point x="326" y="479"/>
      <point x="397" y="408"/>
      <point x="397" y="320" type="curve" smooth="yes"/>
      <point x="397" y="234"/>
      <point x="326" y="159"/>
    </contour>
    <contour>
      <point x="238" y="174" type="curve" smooth="yes"/>
      <point x="317" y="174"/>
      <point x="383" y="238"/>
      <point x="383" y="320" type="curve" smooth="yes"/>
      <point x="383" y="402"/>
      <point x="317" y="466"/>
      <point x="238" y="466" type="curve" smooth="yes"/>
      <point x="155" y="466"/>
      <point x="93" y="402"/>
      <point x="93" y="320" type="curve" smooth="yes"/>
      <point x="93" y="238"/>
      <point x="155" y="174"/>
    </contour>
    <contour>
      <point x="331" y="446" type="line"/>
      <point x="352" y="474"/>
      <point x="362" y="489"/>
      <point x="370" y="498" type="curve" smooth="yes"/>
      <point x="386" y="515"/>
      <point x="400" y="513"/>
      <point x="408" y="505" type="curve" smooth="yes"/>
      <point x="415" y="496"/>
      <point x="417" y="483"/>
      <point x="400" y="467" type="curve" smooth="yes"/>
      <point x="392" y="459"/>
      <point x="377" y="449"/>
      <point x="349" y="428" type="curve"/>
    </contour>
    <contour>
      <point x="125" y="429" type="line"/>
      <point x="98" y="448"/>
      <point x="83" y="459"/>
      <point x="74" y="468" type="curve" smooth="yes"/>
      <point x="59" y="484"/>
      <point x="60" y="496"/>
      <point x="68" y="505" type="curve" smooth="yes"/>
      <point x="75" y="513"/>
      <point x="89" y="515"/>
      <point x="104" y="497" type="curve" smooth="yes"/>
      <point x="113" y="489"/>
      <point x="124" y="475"/>
      <point x="144" y="448" type="curve"/>
    </contour>
    <contour>
      <point x="74" y="173" type="curve" smooth="yes"/>
      <point x="83" y="181"/>
      <point x="100" y="191"/>
      <point x="127" y="213" type="curve"/>
      <point x="145" y="195" type="line"/>
      <point x="123" y="168"/>
      <point x="113" y="152"/>
      <point x="105" y="143" type="curve" smooth="yes"/>
      <point x="90" y="127"/>
      <point x="75" y="128"/>
      <point x="68" y="136" type="curve" smooth="yes"/>
      <point x="60" y="144"/>
      <point x="59" y="158"/>
    </contour>
    <contour>
      <point x="401" y="173" type="curve" smooth="yes"/>
      <point x="417" y="157"/>
      <point x="415" y="144"/>
      <point x="408" y="136" type="curve" smooth="yes"/>
      <point x="400" y="128"/>
      <point x="386" y="126"/>
      <point x="371" y="143" type="curve" smooth="yes"/>
      <point x="364" y="151"/>
      <point x="354" y="167"/>
      <point x="332" y="193" type="curve"/>
      <point x="351" y="211" type="line"/>
      <point x="377" y="190"/>
      <point x="393" y="181"/>
    </contour>
  </outline>
</glyph>
<glyph name="brokenbar" format="2">
  <advance width="354"/>
  <unicode hex="00A6"/>
  <outline>
    <contour>
      <point x="160" y="-225" type="curve" smooth="yes"/>
      <point x="160" y="-239"/>
      <point x="166" y="-245"/>
      <point x="173" y="-245" type="curve" smooth="yes"/>
      <point x="180" y="-245"/>
      <point x="186" y="-239"/>
      <point x="186" y="-225" type="curve" smooth="yes"/>
      <point x="186" y="-169"/>
      <point x="170" y="-103"/>
      <point x="170" y="202" type="curve" smooth="yes"/>
      <point x="170" y="206"/>
      <point x="171" y="207"/>
      <point x="173" y="207" type="curve" smooth="yes"/>
      <point x="175" y="207"/>
      <point x="176" y="206"/>
      <point x="176" y="202" type="curve" smooth="yes"/>
      <point x="176" y="-103"/>
      <point x="160" y="-169"/>
    </contour>
    <contour>
      <point x="160" y="746" type="curve" smooth="yes"/>
      <point x="160" y="690"/>
      <point x="176" y="624"/>
      <point x="176" y="319" type="curve" smooth="yes"/>
      <point x="176" y="315"/>
      <point x="175" y="314"/>
      <point x="173" y="314" type="curve" smooth="yes"/>
      <point x="171" y="314"/>
      <point x="170" y="315"/>
      <point x="170" y="319" type="curve" smooth="yes"/>
      <point x="170" y="624"/>
      <point x="186" y="690"/>
      <point x="186" y="746" type="curve" smooth="yes"/>
      <point x="186" y="760"/>
      <point x="178" y="766"/>
      <point x="173" y="766" type="curve" smooth="yes"/>
      <point x="168" y="766"/>
      <point x="160" y="760"/>
    </contour>
  </outline>
</glyph>
<glyph name="dieresis" format="2">
  <advance width="311"/>
  <unicode hex="00A8"/>
  <outline>
    <contour>
      <point x="80" y="569" type="curve" smooth="yes"/>
      <point x="98" y="569"/>
      <point x="109" y="583"/>
      <point x="109" y="602" type="curve" smooth="yes"/>
      <point x="109" y="619"/>
      <point x="98" y="633"/>
      <point x="80" y="633" type="curve" smooth="yes"/>
      <point x="63" y="633"/>
      <point x="51" y="619"/>
      <point x="51" y="602" type="curve" smooth="yes"/>
      <point x="51" y="583"/>
      <point x="63" y="569"/>
    </contour>
    <contour>
      <point x="223" y="569" type="curve" smooth="yes"/>
      <point x="240" y="569"/>
      <point x="252" y="583"/>
      <point x="252" y="602" type="curve" smooth="yes"/>
      <point x="252" y="619"/>
      <point x="240" y="633"/>
      <point x="223" y="633" type="curve" smooth="yes"/>
      <point x="206" y="633"/>
      <point x="194" y="619"/>
      <point x="194" y="602" type="curve" smooth="yes"/>
      <point x="194" y="583"/>
      <point x="206" y="569"/>
    </contour>
  </outline>
</glyph>
<glyph name="registered" format="2">
  <advance width="454"/>
  <unicode hex="00AE"/>
  <outline>
    <contour>
      <point x="227" y="235" type="curve" smooth="yes"/>
      <point x="109" y="235"/>
      <point x="27" y="323"/>
      <point x="27" y="441" type="curve" smooth="yes"/>
      <point x="27" y="556"/>
      <point x="111" y="638"/>
      <point x="227" y="638" type="curve" smooth="yes"/>
      <point x="342" y="638"/>
      <point x="427" y="556"/>
      <point x="427" y="441" type="curve" smooth="yes"/>
      <point x="427" y="323"/>
      <point x="344" y="235"/>
    </contour>
    <contour>
      <point x="227" y="247" type="curve" smooth="yes"/>
      <point x="338" y="247"/>
      <point x="415" y="330"/>
      <point x="415" y="441" type="curve" smooth="yes"/>
      <point x="415" y="549"/>
      <point x="335" y="626"/>
      <point x="227" y="626" type="curve" smooth="yes"/>
      <point x="118" y="626"/>
      <point x="39" y="550"/>
      <point x="39" y="441" type="curve" smooth="yes"/>
      <point x="39" y="330"/>
      <point x="115" y="247"/>
    </contour>
    <contour>
      <point x="313" y="484" type="curve" smooth="yes"/>
      <point x="313" y="524"/>
      <point x="278" y="555"/>
      <point x="215" y="555" type="curve" smooth="yes"/>
      <point x="142" y="555" type="line" smooth="yes"/>
      <point x="138" y="555"/>
      <point x="136" y="557"/>
      <point x="136" y="557" type="curve" smooth="yes"/>
      <point x="136" y="557"/>
      <point x="138" y="556"/>
      <point x="139" y="556" type="curve" smooth="yes"/>
      <point x="157" y="549" type="line" smooth="yes"/>
      <point x="163" y="546"/>
      <point x="164" y="546"/>
      <point x="164" y="538" type="curve" smooth="yes"/>
      <point x="164" y="347" type="line" smooth="yes"/>
      <point x="164" y="340"/>
      <point x="163" y="338"/>
      <point x="157" y="336" type="curve" smooth="yes"/>
      <point x="139" y="330" type="line" smooth="yes"/>
      <point x="138" y="330"/>
      <point x="136" y="329"/>
      <point x="136" y="329" type="curve" smooth="yes"/>
      <point x="136" y="328"/>
      <point x="138" y="329"/>
      <point x="142" y="329" type="curve" smooth="yes"/>
      <point x="215" y="329" type="line" smooth="yes"/>
      <point x="219" y="329"/>
      <point x="221" y="328"/>
      <point x="221" y="329" type="curve" smooth="yes"/>
      <point x="221" y="330"/>
      <point x="220" y="329"/>
      <point x="217" y="330" type="curve" smooth="yes"/>
      <point x="203" y="336" type="line" smooth="yes"/>
      <point x="196" y="339"/>
      <point x="195" y="339"/>
      <point x="195" y="347" type="curve" smooth="yes"/>
      <point x="195" y="547" type="line"/>
      <point x="213" y="547" type="line" smooth="yes"/>
      <point x="255" y="547"/>
      <point x="284" y="524"/>
      <point x="284" y="489" type="curve" smooth="yes"/>
      <point x="284" y="444"/>
      <point x="257" y="415"/>
      <point x="221" y="415" type="curve" smooth="yes"/>
      <point x="194" y="415"/>
      <point x="179" y="418"/>
      <point x="164" y="428" type="curve"/>
      <point x="160" y="424" type="line"/>
      <point x="176" y="414"/>
      <point x="188" y="410"/>
      <point x="213" y="410" type="curve" smooth="yes"/>
      <point x="270" y="410"/>
      <point x="313" y="437"/>
    </contour>
    <contour>
      <point x="229" y="417" type="line"/>
      <point x="276" y="352" type="line" smooth="yes"/>
      <point x="281" y="345"/>
      <point x="283" y="341"/>
      <point x="283" y="338" type="curve" smooth="yes"/>
      <point x="283" y="335"/>
      <point x="280" y="333"/>
      <point x="276" y="331" type="curve" smooth="yes"/>
      <point x="274" y="329"/>
      <point x="271" y="330"/>
      <point x="271" y="329" type="curve" smooth="yes"/>
      <point x="271" y="328"/>
      <point x="274" y="329"/>
      <point x="277" y="329" type="curve" smooth="yes"/>
      <point x="338" y="329" type="line" smooth="yes"/>
      <point x="343" y="329"/>
      <point x="345" y="329"/>
      <point x="345" y="329" type="curve" smooth="yes"/>
      <point x="345" y="330"/>
      <point x="344" y="329"/>
      <point x="341" y="330" type="curve" smooth="yes"/>
      <point x="330" y="334"/>
      <point x="325" y="341"/>
      <point x="317" y="350" type="curve" smooth="yes"/>
      <point x="258" y="421" type="line"/>
    </contour>
  </outline>
</glyph>
<glyph name="macron" format="2">
  <advance width="376"/>
  <unicode hex="00AF"/>
  <outline>
    <contour>
      <point x="55" y="562" type="curve" smooth="yes"/>
      <point x="55" y="555"/>
      <point x="60" y="550"/>
      <point x="70" y="550" type="curve" smooth="yes"/>
      <point x="305" y="550" type="line" smooth="yes"/>
      <point x="315" y="550"/>
      <point x="322" y="555"/>
      <point x="322" y="562" type="curve" smooth="yes"/>
      <point x="322" y="570"/>
      <point x="314" y="576"/>
      <point x="305" y="576" type="curve" smooth="yes"/>
      <point x="71" y="576" type="line" smooth="yes"/>
      <point x="62" y="576"/>
      <point x="55" y="570"/>
    </contour>
  </outline>
</glyph>
<glyph name="degree" format="2">
  <advance width="327"/>
  <unicode hex="00B0"/>
  <outline>
    <contour>
      <point x="165" y="640" type="curve" smooth="yes"/>
      <point x="94" y="640"/>
      <point x="38" y="590"/>
      <point x="38" y="517" type="curve" smooth="yes"/>
      <point x="38" y="453"/>
      <point x="90" y="407"/>
      <point x="159" y="407" type="curve" smooth="yes"/>
      <point x="236" y="407"/>
      <point x="288" y="458"/>
      <point x="288" y="524" type="curve" smooth="yes"/>
      <point x="288" y="592"/>
      <point x="237" y="640"/>
    </contour>
    <contour>
      <point x="247" y="503" type="curve" smooth="yes"/>
      <point x="247" y="447"/>
      <point x="220" y="417"/>
      <point x="177" y="417" type="curve" smooth="yes"/>
      <point x="123" y="417"/>
      <point x="79" y="470"/>
      <point x="79" y="542" type="curve" smooth="yes"/>
      <point x="79" y="599"/>
      <point x="107" y="629"/>
      <point x="149" y="629" type="curve" smooth="yes"/>
      <point x="207" y="629"/>
      <point x="247" y="575"/>
    </contour>
  </outline>
</glyph>
<glyph name="twosuperior" format="2">
  <advance width="366"/>
  <unicode hex="00B2"/>
  <outline>
    <contour>
      <point x="182" y="465" type="curve" smooth="yes"/>
      <point x="94" y="410"/>
      <point x="67" y="363"/>
      <point x="67" y="306" type="curve" smooth="yes"/>
      <point x="67" y="302"/>
      <point x="69" y="300"/>
      <point x="71" y="300" type="curve" smooth="yes"/>
      <point x="81" y="300"/>
      <point x="92" y="340"/>
      <point x="112" y="340" type="curve" smooth="yes"/>
      <point x="141" y="340"/>
      <point x="173" y="298"/>
      <point x="208" y="298" type="curve" smooth="yes"/>
      <point x="257" y="298"/>
      <point x="275" y="329"/>
      <point x="275" y="370" type="curve" smooth="yes"/>
      <point x="275" y="369"/>
      <point x="276" y="367"/>
      <point x="273" y="367" type="curve" smooth="yes"/>
      <point x="270" y="367"/>
      <point x="269" y="367"/>
      <point x="264" y="360" type="curve" smooth="yes"/>
      <point x="254" y="338"/>
      <point x="247" y="334"/>
      <point x="222" y="334" type="curve" smooth="yes"/>
      <point x="197" y="334"/>
      <point x="161" y="372"/>
      <point x="119" y="372" type="curve" smooth="yes"/>
      <point x="94" y="372"/>
      <point x="74" y="351"/>
      <point x="74" y="327" type="curve"/>
      <point x="78" y="327" type="line"/>
      <point x="78" y="376"/>
      <point x="103" y="400"/>
      <point x="196" y="465" type="curve" smooth="yes"/>
      <point x="254" y="511"/>
      <point x="269" y="528"/>
      <point x="269" y="565" type="curve" smooth="yes"/>
      <point x="269" y="607"/>
      <point x="237" y="640"/>
      <point x="184" y="640" type="curve" smooth="yes"/>
      <point x="120" y="640"/>
      <point x="82" y="597"/>
      <point x="82" y="577" type="curve" smooth="yes"/>
      <point x="82" y="555"/>
      <point x="91" y="542"/>
      <point x="109" y="542" type="curve" smooth="yes"/>
      <point x="118" y="542"/>
      <point x="128" y="553"/>
      <point x="128" y="563" type="curve" smooth="yes"/>
      <point x="128" y="574" type="line" smooth="yes"/>
      <point x="128" y="615"/>
      <point x="146" y="639"/>
      <point x="190" y="639" type="curve" smooth="yes"/>
      <point x="220" y="639"/>
      <point x="240" y="615"/>
      <point x="240" y="568" type="curve" smooth="yes"/>
      <point x="240" y="524"/>
      <point x="226" y="492"/>
    </contour>
  </outline>
</glyph>
<glyph name="Eth" format="2">
  <advance width="718"/>
  <unicode hex="00D0"/>
  <outline>
    <contour>
      <point x="22" y="362" type="curve" smooth="yes"/>
      <point x="22" y="359"/>
      <point x="24" y="358"/>
      <point x="28" y="358" type="curve" smooth="yes"/>
      <point x="332" y="358" type="line" smooth="yes"/>
      <point x="336" y="358"/>
      <point x="337" y="359"/>
      <point x="337" y="362" type="curve" smooth="yes"/>
      <point x="337" y="365"/>
      <point x="336" y="367"/>
      <point x="332" y="367" type="curve" smooth="yes"/>
      <point x="28" y="367" type="line" smooth="yes"/>
      <point x="24" y="367"/>
      <point x="22" y="365"/>
    </contour>
    <component base="D" xOffset="24"/>
  </outline>
</glyph>
<glyph name="multiply" format="2">
  <advance width="389"/>
  <unicode hex="00D7"/>
  <outline>
    <contour>
      <point x="53" y="162" type="curve" smooth="yes"/>
      <point x="58" y="156"/>
      <point x="69" y="158"/>
      <point x="76" y="165" type="curve" smooth="yes"/>
      <point x="107" y="195"/>
      <point x="132" y="250"/>
      <point x="191" y="309" type="curve" smooth="yes"/>
      <point x="247" y="365"/>
      <point x="304" y="392"/>
      <point x="331" y="419" type="curve" smooth="yes"/>
      <point x="340" y="428"/>
      <point x="340" y="438"/>
      <point x="334" y="443" type="curve" smooth="yes"/>
      <point x="328" y="450"/>
      <point x="315" y="450"/>
      <point x="309" y="442" type="curve" smooth="yes"/>
      <point x="281" y="415"/>
      <point x="253" y="357"/>
      <point x="198" y="302" type="curve" smooth="yes"/>
      <point x="138" y="241"/>
      <point x="84" y="218"/>
      <point x="55" y="188" type="curve" smooth="yes"/>
      <point x="47" y="181"/>
      <point x="46" y="168"/>
    </contour>
    <contour>
      <point x="338" y="164" type="curve" smooth="yes"/>
      <point x="343" y="170"/>
      <point x="341" y="181"/>
      <point x="335" y="188" type="curve" smooth="yes"/>
      <point x="305" y="217"/>
      <point x="250" y="243"/>
      <point x="190" y="303" type="curve" smooth="yes"/>
      <point x="134" y="359"/>
      <point x="107" y="416"/>
      <point x="79" y="443" type="curve" smooth="yes"/>
      <point x="71" y="451"/>
      <point x="62" y="452"/>
      <point x="56" y="446" type="curve" smooth="yes"/>
      <point x="49" y="440"/>
      <point x="49" y="428"/>
      <point x="57" y="420" type="curve" smooth="yes"/>
      <point x="84" y="394"/>
      <point x="141" y="366"/>
      <point x="198" y="310" type="curve" smooth="yes"/>
      <point x="258" y="249"/>
      <point x="282" y="195"/>
      <point x="311" y="166" type="curve" smooth="yes"/>
      <point x="318" y="159"/>
      <point x="331" y="157"/>
    </contour>
  </outline>
</glyph>
<glyph name="germandbls" format="2">
  <advance width="569"/>
  <unicode hex="00DF"/>
  <outline>
    <contour>
      <point x="321" y="344" type="curve" smooth="yes"/>
      <point x="321" y="316"/>
      <point x="334" y="293"/>
      <point x="411" y="265" type="curve" smooth="yes"/>
      <point x="482" y="239"/>
      <point x="538" y="193"/>
      <point x="538" y="124" type="curve" smooth="yes"/>
      <point x="538" y="57"/>
      <point x="477" y="-10"/>
      <point x="399" y="-10" type="curve" smooth="yes"/>
      <point x="348" y="-10"/>
      <point x="304" y="24"/>
      <point x="296" y="24" type="curve" smooth="yes"/>
      <point x="286" y="24"/>
      <point x="281" y="16"/>
      <point x="270" y="-3" type="curve" smooth="yes"/>
      <point x="268" y="-6"/>
      <point x="267" y="-6"/>
      <point x="267" y="-6" type="curve" smooth="yes"/>
      <point x="270" y="-6"/>
      <point x="266" y="-8"/>
      <point x="265" y="-2" type="curve" smooth="yes"/>
      <point x="251" y="99" type="line" smooth="yes"/>
      <point x="249" y="112"/>
      <point x="248" y="118"/>
      <point x="248" y="122" type="curve" smooth="yes"/>
      <point x="248" y="119"/>
      <point x="244" y="117"/>
      <point x="246" y="117" type="curve" smooth="yes"/>
      <point x="247" y="117"/>
      <point x="251" y="117"/>
      <point x="251" y="117" type="curve" smooth="yes"/>
      <point x="302" y="31"/>
      <point x="359" y="-8"/>
      <point x="421" y="-8" type="curve" smooth="yes"/>
      <point x="480" y="-8"/>
      <point x="528" y="32"/>
      <point x="528" y="88" type="curve" smooth="yes"/>
      <point x="528" y="148"/>
      <point x="491" y="181"/>
      <point x="420" y="209" type="curve" smooth="yes"/>
      <point x="327" y="243"/>
      <point x="302" y="280"/>
      <point x="302" y="326" type="curve" smooth="yes"/>
      <point x="302" y="358"/>
      <point x="321" y="402"/>
      <point x="403" y="458" type="curve" smooth="yes"/>
      <point x="464" y="499"/>
      <point x="483" y="535"/>
      <point x="483" y="591" type="curve" smooth="yes"/>
      <point x="483" y="667"/>
      <point x="438" y="713"/>
      <point x="353" y="713" type="curve" smooth="yes"/>
      <point x="238" y="713"/>
      <point x="148" y="635"/>
      <point x="148" y="465" type="curve" smooth="yes"/>
      <point x="148" y="47" type="line" smooth="yes"/>
      <point x="148" y="24"/>
      <point x="158" y="14"/>
      <point x="190" y="4" type="curve" smooth="yes"/>
      <point x="193" y="3"/>
      <point x="195" y="3"/>
      <point x="195" y="2" type="curve" smooth="yes"/>
      <point x="195" y="1"/>
      <point x="194" y="0"/>
      <point x="189" y="0" type="curve" smooth="yes"/>
      <point x="56" y="0" type="line" smooth="yes"/>
      <point x="52" y="0"/>
      <point x="50" y="0"/>
      <point x="50" y="-1" type="curve" smooth="yes"/>
      <point x="50" y="3"/>
      <point x="49" y="1"/>
      <point x="58" y="5" type="curve" smooth="yes"/>
      <point x="98" y="17" type="line" smooth="yes"/>
      <point x="110" y="22"/>
      <point x="120" y="27"/>
      <point x="120" y="42" type="curve" smooth="yes"/>
      <point x="120" y="374" type="line" smooth="yes"/>
      <point x="120" y="392"/>
      <point x="115" y="403"/>
      <point x="104" y="406" type="curve" smooth="yes"/>
      <point x="41" y="428" type="line" smooth="yes"/>
      <point x="35" y="431"/>
      <point x="31" y="430"/>
      <point x="31" y="431" type="curve" smooth="yes"/>
      <point x="31" y="432"/>
      <point x="32" y="431"/>
      <point x="35" y="431" type="curve" smooth="yes"/>
      <point x="135" y="431" type="line"/>
      <point x="124" y="431" type="line"/>
      <point x="124" y="461" type="line" smooth="yes"/>
      <point x="124" y="597"/>
      <point x="203" y="711"/>
      <point x="353" y="711" type="curve" smooth="yes"/>
      <point x="452" y="711"/>
      <point x="501" y="656"/>
      <point x="501" y="590" type="curve" smooth="yes"/>
      <point x="501" y="543"/>
      <point x="482" y="512"/>
      <point x="389" y="441" type="curve" smooth="yes"/>
      <point x="336" y="401"/>
      <point x="321" y="376"/>
    </contour>
  </outline>
</glyph>
<glyph name="dotlessi" format="2">
  <advance width="171"/>
  <unicode hex="0131"/>
  <outline>
    <contour>
      <point x="105" y="426" type="line" smooth="yes"/>
      <point x="105" y="428"/>
      <point x="104" y="430"/>
      <point x="102" y="430" type="curve" smooth="yes"/>
      <point x="101.375" y="430.0"/>
      <point x="99.5928599747508" y="429.7260007929302"/>
      <point x="97" y="429" type="curve" smooth="yes"/>
      <point x="22" y="408" type="line" smooth="yes"/>
      <point x="20" y="407"/>
      <point x="19" y="407"/>
      <point x="19" y="405" type="curve" smooth="yes"/>
      <point x="19" y="404"/>
      <point x="20" y="403"/>
      <point x="21" y="403" type="curve" smooth="yes"/>
      <point x="73" y="403" type="line" smooth="yes"/>
      <point x="76" y="403"/>
      <point x="77.0" y="401.0"/>
      <point x="77" y="399" type="curve" smooth="yes"/>
      <point x="77" y="20" type="line" smooth="yes"/>
      <point x="77" y="15"/>
      <point x="73" y="11"/>
      <point x="65" y="10" type="curve" smooth="yes"/>
      <point x="26" y="6" type="line" smooth="yes"/>
      <point x="21" y="6"/>
      <point x="19" y="3"/>
      <point x="19" y="2" type="curve" smooth="yes"/>
      <point x="19" y="1"/>
      <point x="20" y="0"/>
      <point x="21" y="0" type="curve" smooth="yes"/>
      <point x="158" y="0" type="line" smooth="yes"/>
      <point x="160" y="0"/>
      <point x="161" y="1"/>
      <point x="161" y="2" type="curve" smooth="yes"/>
      <point x="161" y="4"/>
      <point x="160" y="5"/>
      <point x="157" y="5" type="curve" smooth="yes"/>
      <point x="117" y="10" type="line" smooth="yes"/>
      <point x="109" y="11"/>
      <point x="105" y="15"/>
      <point x="105" y="21" type="curve" smooth="yes"/>
    </contour>
  </outline>
</glyph>
<glyph name="kra" format="2">
  <advance width="455"/>
  <unicode hex="0138"/>
  <outline>
    <contour>
      <point x="231" y="277" type="line"/>
      <point x="203" y="261" type="line"/>
      <point x="341" y="47" type="line" smooth="yes"/>
      <point x="347" y="39"/>
      <point x="350" y="31"/>
      <point x="350" y="22" type="curve" smooth="yes"/>
      <point x="350" y="6"/>
      <point x="340" y="1"/>
      <point x="314" y="1" type="curve" smooth="yes"/>
      <point x="303" y="5"/>
      <point x="299" y="2"/>
      <point x="299" y="-1" type="curve" smooth="yes"/>
      <point x="299" y="0"/>
      <point x="302" y="0"/>
      <point x="308" y="0" type="curve" smooth="yes"/>
      <point x="465" y="0" type="line" smooth="yes"/>
      <point x="469" y="0"/>
      <point x="467" y="-1"/>
      <point x="467" y="-1" type="curve" smooth="yes"/>
      <point x="467" y="1"/>
      <point x="463" y="-2"/>
      <point x="457" y="-4" type="curve" smooth="yes"/>
      <point x="430" y="-2"/>
      <point x="415" y="10"/>
      <point x="394" y="42" type="curve" smooth="yes"/>
    </contour>
    <contour>
      <point x="106" y="196" type="line"/>
      <point x="99" y="192" type="line"/>
      <point x="326" y="373" type="line" smooth="yes"/>
      <point x="355" y="394"/>
      <point x="390" y="417"/>
      <point x="428" y="426" type="curve" smooth="yes"/>
      <point x="427" y="424"/>
      <point x="429" y="423"/>
      <point x="429" y="424" type="curve" smooth="yes"/>
      <point x="429" y="425"/>
      <point x="427" y="426"/>
      <point x="416" y="426" type="curve" smooth="yes"/>
      <point x="306" y="426" type="line" smooth="yes"/>
      <point x="300" y="426"/>
      <point x="297" y="425"/>
      <point x="297" y="423" type="curve" smooth="yes"/>
      <point x="297" y="422"/>
      <point x="301" y="421"/>
      <point x="307" y="422" type="curve" smooth="yes"/>
      <point x="336" y="419"/>
      <point x="341" y="414"/>
      <point x="341" y="404" type="curve" smooth="yes"/>
      <point x="341" y="394"/>
      <point x="330" y="383"/>
      <point x="301" y="359" type="curve" smooth="yes"/>
    </contour>
    <component base="dotlessi" xOffset="-14"/>
  </outline>
</glyph>
<glyph name="Tbar" format="2">
  <advance width="540"/>
  <unicode hex="0166"/>
  <outline>
    <contour>
      <point x="84" y="362" type="curve" smooth="yes"/>
      <point x="84" y="363"/>
      <point x="84" y="365"/>
      <point x="83" y="365" type="curve" smooth="yes"/>
      <point x="462" y="365" type="line" smooth="yes"/>
      <point x="462" y="365"/>
      <point x="460" y="363"/>
      <point x="460" y="362" type="curve" smooth="yes"/>
      <point x="462" y="360" type="line" smooth="yes"/>
      <point x="83" y="360" type="line" smooth="yes"/>
      <point x="82" y="360"/>
      <point x="84" y="362"/>
    </contour>
    <component base="T"/>
  </outline>
</glyph>
<glyph name="Schwa" format="2">
  <advance width="607"/>
  <unicode hex="018F"/>
  <outline>
    <contour>
      <point x="45" y="186" type="curve" smooth="yes"/>
      <point x="45" y="75"/>
      <point x="136" y="-11"/>
      <point x="263" y="-11" type="curve" smooth="yes"/>
      <point x="434" y="-11"/>
      <point x="558" y="156"/>
      <point x="558" y="385" type="curve" smooth="yes"/>
      <point x="558" y="566"/>
      <point x="453" y="715"/>
      <point x="293" y="715" type="curve" smooth="yes"/>
      <point x="155" y="715"/>
      <point x="55" y="603"/>
      <point x="55" y="534" type="curve" smooth="yes"/>
      <point x="55" y="536"/>
      <point x="53" y="538"/>
      <point x="51" y="538" type="curve" smooth="yes"/>
      <point x="51" y="538"/>
      <point x="52" y="542"/>
      <point x="51" y="545" type="curve" smooth="yes"/>
      <point x="89" y="629"/>
      <point x="165" y="683"/>
      <point x="292" y="683" type="curve" smooth="yes"/>
      <point x="427" y="683"/>
      <point x="518" y="538"/>
      <point x="518" y="326" type="curve" smooth="yes"/>
      <point x="518" y="130"/>
      <point x="434" y="3"/>
      <point x="277" y="3" type="curve" smooth="yes"/>
      <point x="162" y="3"/>
      <point x="93" y="71"/>
      <point x="93" y="175" type="curve" smooth="yes"/>
      <point x="93" y="212"/>
      <point x="105" y="231"/>
      <point x="126" y="231" type="curve" smooth="yes"/>
      <point x="555" y="231" type="line"/>
      <point x="555" y="239" type="line"/>
      <point x="80" y="239" type="line" smooth="yes"/>
      <point x="57" y="239"/>
      <point x="45" y="219"/>
    </contour>
  </outline>
</glyph>
<glyph name="fhook" format="2">
  <advance width="299"/>
  <unicode hex="0192"/>
  <outline>
    <contour>
      <point x="70" y="-15" type="line" smooth="yes"/>
      <point x="70" y="-10"/>
      <point x="70" y="-19"/>
      <point x="70" y="-27" type="curve" smooth="yes"/>
      <point x="70" y="-65"/>
      <point x="82" y="-90"/>
      <point x="82" y="-128" type="curve" smooth="yes"/>
      <point x="82" y="-185"/>
      <point x="51" y="-219"/>
      <point x="15" y="-219" type="curve" smooth="yes"/>
      <point x="-7" y="-219"/>
      <point x="-19" y="-206"/>
      <point x="-19" y="-186" type="curve" smooth="yes"/>
      <point x="-19" y="-176"/>
      <point x="-15" y="-164"/>
      <point x="-15" y="-150" type="curve" smooth="yes"/>
      <point x="-15" y="-129"/>
      <point x="-31" y="-116"/>
      <point x="-49" y="-116" type="curve" smooth="yes"/>
      <point x="-74" y="-116"/>
      <point x="-94" y="-137"/>
      <point x="-94" y="-172" type="curve" smooth="yes"/>
      <point x="-94" y="-212"/>
      <point x="-69" y="-245"/>
      <point x="-27" y="-245" type="curve" smooth="yes"/>
      <point x="33" y="-245"/>
      <point x="85" y="-200"/>
      <point x="98" y="-50" type="curve" smooth="yes"/>
      <point x="142" y="446" type="line"/>
      <point x="292" y="446" type="line" smooth="yes"/>
      <point x="297" y="446"/>
      <point x="298" y="451"/>
      <point x="298" y="449" type="curve" smooth="yes"/>
      <point x="298" y="451"/>
      <point x="294" y="451"/>
      <point x="290" y="451" type="curve" smooth="yes"/>
      <point x="145" y="451" type="line"/>
      <point x="147" y="489"/>
      <point x="149" y="505"/>
      <point x="150" y="521" type="curve" smooth="yes"/>
      <point x="152" y="536"/>
      <point x="159" y="546"/>
      <point x="161" y="560" type="curve" smooth="yes"/>
      <point x="166" y="637"/>
      <point x="195" y="694"/>
      <point x="241" y="694" type="curve" smooth="yes"/>
      <point x="254" y="694"/>
      <point x="266" y="683"/>
      <point x="262" y="665" type="curve" smooth="yes"/>
      <point x="260" y="654"/>
      <point x="258" y="649"/>
      <point x="258" y="634" type="curve" smooth="yes"/>
      <point x="258" y="613"/>
      <point x="274" y="600"/>
      <point x="291" y="600" type="curve" smooth="yes"/>
      <point x="322" y="600"/>
      <point x="343" y="621"/>
      <point x="343" y="651" type="curve" smooth="yes"/>
      <point x="343" y="686"/>
      <point x="314" y="715"/>
      <point x="279" y="715" type="curve" smooth="yes"/>
      <point x="213" y="715"/>
      <point x="149" y="651"/>
      <point x="133" y="546" type="curve" smooth="yes"/>
      <point x="130" y="519"/>
      <point x="127" y="487"/>
      <point x="118" y="445" type="curve" smooth="yes"/>
      <point x="117" y="445" type="line"/>
      <point x="133" y="451" type="line"/>
      <point x="36" y="451" type="line" smooth="yes"/>
      <point x="35" y="451"/>
      <point x="35" y="451"/>
      <point x="35" y="451" type="curve" smooth="yes"/>
      <point x="35" y="448"/>
      <point x="42" y="450"/>
      <point x="54" y="446" type="curve" smooth="yes"/>
      <point x="86" y="435" type="line" smooth="yes"/>
      <point x="101" y="430"/>
      <point x="107" y="418"/>
      <point x="105" y="395" type="curve" smooth="yes"/>
    </contour>
  </outline>
</glyph>
<glyph name="circumflex" format="2">
  <advance width="325"/>
  <unicode hex="02C6"/>
  <outline>
    <contour>
      <point x="52" y="520" type="curve" smooth="yes"/>
      <point x="156" y="656" type="line" smooth="yes"/>
      <point x="156" y="655"/>
      <point x="153" y="658"/>
      <point x="154" y="658" type="curve" smooth="yes"/>
      <point x="156" y="658"/>
      <point x="155" y="656"/>
      <point x="153" y="658" type="curve" smooth="yes"/>
      <point x="258" y="518" type="line" smooth="yes"/>
      <point x="258" y="517"/>
      <point x="260" y="514"/>
      <point x="260" y="512" type="curve" smooth="yes"/>
      <point x="260" y="511"/>
      <point x="259" y="510"/>
      <point x="258" y="510" type="curve" smooth="yes"/>
      <point x="258" y="510"/>
      <point x="256" y="513"/>
      <point x="254" y="516" type="curve" smooth="yes"/>
      <point x="158" y="607" type="line"/>
      <point x="151" y="607" type="line"/>
      <point x="54" y="514" type="line" smooth="yes"/>
      <point x="53" y="512"/>
      <point x="52" y="510"/>
      <point x="52" y="510" type="curve" smooth="yes"/>
      <point x="51" y="510"/>
      <point x="50" y="512"/>
      <point x="50" y="513" type="curve" smooth="yes"/>
      <point x="50" y="515"/>
      <point x="51" y="519"/>
    </contour>
  </outline>
</glyph>
<glyph name="dotaccent" format="2">
  <advance width="106"/>
  <unicode hex="02D9"/>
  <outline>
    <contour>
      <point x="53.0" y="586.0" type="curve" smooth="yes"/>
      <point x="69" y="586.0"/>
      <point x="80.0" y="598"/>
      <point x="80.0" y="613.0" type="curve" smooth="yes"/>
      <point x="80.0" y="627"/>
      <point x="69" y="639"/>
      <point x="53.0" y="639" type="curve" smooth="yes"/>
      <point x="38" y="639"/>
      <point x="26" y="627"/>
      <point x="26" y="613.0" type="curve" smooth="yes"/>
      <point x="26" y="598"/>
      <point x="38" y="586.0"/>
    </contour>
  </outline>
</glyph>
<glyph name="tilde" format="2">
  <advance width="287"/>
  <unicode hex="02DC"/>
  <outline>
    <contour>
      <point x="55" y="548" type="curve" smooth="yes"/>
      <point x="55" y="606"/>
      <point x="74" y="633"/>
      <point x="107" y="633" type="curve" smooth="yes"/>
      <point x="116" y="633"/>
      <point x="131" y="623"/>
      <point x="154" y="587" type="curve" smooth="yes"/>
      <point x="172" y="557"/>
      <point x="186" y="549"/>
      <point x="200" y="549" type="curve" smooth="yes"/>
      <point x="214" y="549"/>
      <point x="223" y="576"/>
      <point x="223" y="629" type="curve" smooth="yes"/>
      <point x="223" y="633"/>
      <point x="223" y="636"/>
      <point x="224" y="636" type="curve" smooth="yes"/>
      <point x="224" y="636"/>
      <point x="223" y="634"/>
      <point x="223" y="626" type="curve" smooth="yes"/>
      <point x="223" y="552"/>
      <point x="211" y="527"/>
      <point x="182" y="528" type="curve" smooth="yes"/>
      <point x="157" y="529"/>
      <point x="136" y="545"/>
      <point x="121" y="573" type="curve" smooth="yes"/>
      <point x="105" y="605"/>
      <point x="91" y="612"/>
      <point x="81" y="612" type="curve" smooth="yes"/>
      <point x="65" y="612"/>
      <point x="55" y="587"/>
      <point x="55" y="534" type="curve" smooth="yes"/>
      <point x="55" y="531"/>
      <point x="55" y="528"/>
      <point x="55" y="528" type="curve" smooth="yes"/>
      <point x="54" y="528"/>
      <point x="55" y="532"/>
    </contour>
  </outline>
</glyph>
<glyph name="horncmb" format="2">
  <advance width="212"/>
  <unicode hex="031B"/>
  <anchor x="-85" y="296" name="center"/>
  <outline>
    <contour>
      <point x="130" y="518" type="curve" smooth="yes"/>
      <point x="145" y="513" type="line" smooth="yes"/>
      <point x="158" y="510"/>
      <point x="164" y="500"/>
      <point x="164" y="487" type="curve" smooth="yes"/>
      <point x="164" y="436"/>
      <point x="130" y="399"/>
      <point x="63" y="370" type="curve" smooth="yes"/>
      <point x="60" y="368"/>
      <point x="61" y="367"/>
      <point x="61" y="370" type="curve" smooth="yes"/>
      <point x="61" y="371"/>
      <point x="60" y="370"/>
      <point x="60" y="370" type="curve" smooth="yes"/>
      <point x="92" y="370"/>
      <point x="182" y="412"/>
      <point x="182" y="513" type="curve" smooth="yes"/>
      <point x="182" y="565"/>
      <point x="149" y="589"/>
      <point x="128" y="589" type="curve" smooth="yes"/>
      <point x="109" y="589"/>
      <point x="95" y="575"/>
      <point x="95" y="558" type="curve" smooth="yes"/>
      <point x="95" y="538"/>
      <point x="108" y="524"/>
    </contour>
  </outline>
</glyph>
<glyph name="mu" format="2">
  <advance width="458"/>
  <unicode hex="03BC"/>
  <outline>
    <contour>
      <point x="69" y="121" type="line"/>
      <point x="69" y="-73"/>
      <point x="55" y="-169"/>
      <point x="55" y="-220" type="curve" smooth="yes"/>
      <point x="55" y="-238"/>
      <point x="63" y="-247"/>
      <point x="74" y="-247" type="curve" smooth="yes"/>
      <point x="82" y="-247"/>
      <point x="88" y="-236"/>
      <point x="88" y="-220" type="curve" smooth="yes"/>
      <point x="88" y="-169"/>
      <point x="77" y="-73"/>
      <point x="77" y="121" type="curve"/>
    </contour>
    <component base="u"/>
  </outline>
</glyph>
<glyph name="Germandbls" format="2">
  <advance width="643"/>
  <unicode hex="1E9E"/>
  <outline>
    <contour>
      <point x="572" y="700" type="curve" smooth="yes"/>
      <point x="42" y="700" type="line" smooth="yes"/>
      <point x="40" y="700"/>
      <point x="38" y="701"/>
      <point x="38" y="703" type="curve" smooth="yes"/>
      <point x="38" y="703"/>
      <point x="38" y="704"/>
      <point x="40" y="704" type="curve" smooth="yes"/>
      <point x="102" y="690" type="line" smooth="yes"/>
      <point x="119" y="687"/>
      <point x="128" y="678"/>
      <point x="128" y="659" type="curve" smooth="yes"/>
      <point x="128" y="27" type="line" smooth="yes"/>
      <point x="128" y="14"/>
      <point x="118" y="7"/>
      <point x="104" y="5" type="curve" smooth="yes"/>
      <point x="50" y="-5" type="line" smooth="yes"/>
      <point x="46" y="-5"/>
      <point x="45" y="-3"/>
      <point x="45" y="-3" type="curve" smooth="yes"/>
      <point x="45" y="-1"/>
      <point x="44" y="0"/>
      <point x="43" y="0" type="curve" smooth="yes"/>
      <point x="160" y="0" type="line" smooth="yes"/>
      <point x="164" y="0"/>
      <point x="167" y="4"/>
      <point x="167" y="10" type="curve" smooth="yes"/>
      <point x="167" y="664" type="line" smooth="yes"/>
      <point x="167" y="681"/>
      <point x="174" y="689"/>
      <point x="177" y="689" type="curve" smooth="yes"/>
      <point x="496" y="689" type="line" smooth="yes"/>
      <point x="507" y="689"/>
      <point x="514" y="685"/>
      <point x="514" y="677" type="curve" smooth="yes"/>
      <point x="514" y="662"/>
      <point x="515" y="663"/>
      <point x="507" y="651" type="curve" smooth="yes"/>
      <point x="318" y="397" type="line" smooth="yes"/>
      <point x="314" y="389"/>
      <point x="312" y="386"/>
      <point x="312" y="382" type="curve" smooth="yes"/>
      <point x="312" y="380"/>
      <point x="311" y="377"/>
      <point x="313" y="377" type="curve" smooth="yes"/>
      <point x="355" y="377" type="line" smooth="yes"/>
      <point x="450" y="377"/>
      <point x="554" y="308"/>
      <point x="554" y="169" type="curve" smooth="yes"/>
      <point x="554" y="47"/>
      <point x="506" y="-3"/>
      <point x="442" y="-3" type="curve" smooth="yes"/>
      <point x="366" y="-3"/>
      <point x="311" y="28"/>
      <point x="264" y="140" type="curve" smooth="yes"/>
      <point x="250" y="172" type="line" smooth="yes"/>
      <point x="250" y="175"/>
      <point x="246" y="177"/>
      <point x="244" y="177" type="curve" smooth="yes"/>
      <point x="246" y="177"/>
      <point x="246" y="174"/>
      <point x="246" y="170" type="curve" smooth="yes"/>
      <point x="274" y="-9" type="line" smooth="yes"/>
      <point x="273" y="-10"/>
      <point x="274" y="-10"/>
      <point x="274" y="-10" type="curve" smooth="yes"/>
      <point x="281" y="-10"/>
      <point x="301" y="22"/>
      <point x="306" y="22" type="curve" smooth="yes"/>
      <point x="321" y="22"/>
      <point x="334" y="-10"/>
      <point x="415" y="-10" type="curve" smooth="yes"/>
      <point x="518" y="-10"/>
      <point x="591" y="71"/>
      <point x="591" y="184" type="curve" smooth="yes"/>
      <point x="591" y="302"/>
      <point x="503" y="381"/>
      <point x="352" y="381" type="curve"/>
      <point x="346" y="371" type="line"/>
      <point x="564" y="664" type="line" smooth="yes"/>
      <point x="571" y="675"/>
      <point x="578" y="678"/>
      <point x="578" y="685" type="curve" smooth="yes"/>
      <point x="578" y="694"/>
      <point x="576" y="700"/>
    </contour>
  </outline>
</glyph>
<glyph name="endash" format="2">
  <advance width="607"/>
  <unicode hex="2013"/>
  <outline>
    <contour>
      <point x="36" y="228" type="curve" smooth="yes"/>
      <point x="36" y="231"/>
      <point x="35" y="232"/>
      <point x="35" y="232" type="curve" smooth="yes"/>
      <point x="571" y="232" type="line" smooth="yes"/>
      <point x="571" y="232"/>
      <point x="571" y="231"/>
      <point x="571" y="228" type="curve" smooth="yes"/>
      <point x="571" y="226"/>
      <point x="572" y="226"/>
      <point x="571" y="226" type="curve" smooth="yes"/>
      <point x="36" y="226" type="line" smooth="yes"/>
      <point x="37" y="226"/>
      <point x="36" y="227"/>
    </contour>
  </outline>
</glyph>
<glyph name="dagger" format="2">
  <advance width="388"/>
  <unicode hex="2020"/>
  <outline>
    <contour>
      <point x="193" y="528" type="curve" smooth="yes"/>
      <point x="193" y="433"/>
      <point x="171" y="396"/>
      <point x="171" y="326" type="curve" smooth="yes"/>
      <point x="171" y="254"/>
      <point x="193" y="140"/>
      <point x="193" y="-150" type="curve" smooth="yes"/>
      <point x="193" y="-155"/>
      <point x="193" y="-156"/>
      <point x="194" y="-156" type="curve" smooth="yes"/>
      <point x="194" y="-156"/>
      <point x="193" y="-154"/>
      <point x="193" y="-151" type="curve" smooth="yes"/>
      <point x="193" y="140"/>
      <point x="216" y="251"/>
      <point x="216" y="326" type="curve" smooth="yes"/>
      <point x="216" y="393"/>
      <point x="195" y="431"/>
      <point x="195" y="528" type="curve" smooth="yes"/>
      <point x="195" y="613"/>
      <point x="218" y="636"/>
      <point x="218" y="673" type="curve" smooth="yes"/>
      <point x="218" y="690"/>
      <point x="207" y="701"/>
      <point x="193" y="701" type="curve" smooth="yes"/>
      <point x="176" y="701"/>
      <point x="164" y="690"/>
      <point x="164" y="671" type="curve" smooth="yes"/>
      <point x="164" y="636"/>
      <point x="193" y="612"/>
    </contour>
    <contour>
      <point x="195" y="529" type="curve" smooth="yes"/>
      <point x="253" y="529"/>
      <point x="272" y="503"/>
      <point x="310" y="503" type="curve" smooth="yes"/>
      <point x="334" y="503"/>
      <point x="345" y="519"/>
      <point x="345" y="533" type="curve" smooth="yes"/>
      <point x="345" y="545"/>
      <point x="334" y="557"/>
      <point x="313" y="557" type="curve" smooth="yes"/>
      <point x="276" y="558"/>
      <point x="254" y="530"/>
      <point x="195" y="530" type="curve" smooth="yes"/>
      <point x="137" y="530"/>
      <point x="116" y="559"/>
      <point x="78" y="559" type="curve" smooth="yes"/>
      <point x="54" y="559"/>
      <point x="43" y="548"/>
      <point x="43" y="534" type="curve" smooth="yes"/>
      <point x="43" y="517"/>
      <point x="55" y="505"/>
      <point x="79" y="504" type="curve" smooth="yes"/>
      <point x="117" y="503"/>
      <point x="137" y="529"/>
    </contour>
  </outline>
</glyph>
<glyph name="guilsinglleft" format="2">
  <advance width="328"/>
  <unicode hex="2039"/>
  <outline>
    <contour>
      <point x="61" y="248" type="curve" smooth="yes"/>
      <point x="61" y="243"/>
      <point x="64" y="239"/>
      <point x="74" y="231" type="curve" smooth="yes"/>
      <point x="145" y="188"/>
      <point x="211" y="128"/>
      <point x="260" y="68" type="curve" smooth="yes"/>
      <point x="261" y="68"/>
      <point x="260" y="66"/>
      <point x="261" y="66" type="curve" smooth="yes"/>
      <point x="261" y="66"/>
      <point x="261" y="66"/>
      <point x="261" y="67" type="curve" smooth="yes"/>
      <point x="261" y="68"/>
      <point x="260" y="69"/>
      <point x="257" y="71" type="curve" smooth="yes"/>
      <point x="203" y="148"/>
      <point x="151" y="206"/>
      <point x="104" y="244" type="curve"/>
      <point x="104" y="246" type="line"/>
      <point x="148" y="280"/>
      <point x="194" y="342"/>
      <point x="257" y="427" type="curve" smooth="yes"/>
      <point x="259" y="429"/>
      <point x="261" y="430"/>
      <point x="261" y="432" type="curve" smooth="yes"/>
      <point x="261" y="433"/>
      <point x="259" y="433"/>
      <point x="258" y="433" type="curve" smooth="yes"/>
      <point x="256" y="433"/>
      <point x="256" y="433"/>
      <point x="253" y="431" type="curve" smooth="yes"/>
      <point x="200" y="375"/>
      <point x="148" y="315"/>
      <point x="74" y="265" type="curve" smooth="yes"/>
      <point x="63" y="256"/>
      <point x="61" y="253"/>
    </contour>
  </outline>
</glyph>
<glyph name="four.superior" format="2">
  <advance width="340"/>
  <unicode hex="2074"/>
  <outline>
    <contour>
      <point x="199" y="475" type="curve" smooth="yes"/>
      <point x="199" y="345" type="line" smooth="yes"/>
      <point x="199" y="322"/>
      <point x="183" y="312"/>
      <point x="147" y="307" type="curve" smooth="yes"/>
      <point x="140" y="307"/>
      <point x="137" y="306"/>
      <point x="137" y="305" type="curve" smooth="yes"/>
      <point x="137" y="305"/>
      <point x="139" y="305"/>
      <point x="145" y="305" type="curve" smooth="yes"/>
      <point x="276" y="305" type="line" smooth="yes"/>
      <point x="281" y="305"/>
      <point x="283" y="304"/>
      <point x="283" y="305" type="curve" smooth="yes"/>
      <point x="283" y="306"/>
      <point x="281" y="305"/>
      <point x="278" y="306" type="curve" smooth="yes"/>
      <point x="244" y="313"/>
      <point x="229" y="321"/>
      <point x="229" y="344" type="curve" smooth="yes"/>
      <point x="229" y="498" type="line" smooth="yes"/>
      <point x="229" y="504"/>
      <point x="230" y="507"/>
      <point x="224" y="507" type="curve" smooth="yes"/>
      <point x="220" y="507"/>
      <point x="218" y="504"/>
      <point x="211" y="497" type="curve" smooth="yes"/>
      <point x="199" y="480" type="line" smooth="yes"/>
      <point x="200" y="479"/>
      <point x="199" y="478"/>
    </contour>
    <contour>
      <point x="190" y="573" type="curve" smooth="yes"/>
      <point x="68" y="435" type="line" smooth="yes"/>
      <point x="63" y="427"/>
      <point x="56" y="422"/>
      <point x="56" y="415" type="curve" smooth="yes"/>
      <point x="56" y="406"/>
      <point x="60" y="402"/>
      <point x="69" y="402" type="curve" smooth="yes"/>
      <point x="282" y="402" type="line" smooth="yes"/>
      <point x="288" y="402"/>
      <point x="293" y="405"/>
      <point x="293" y="409" type="curve" smooth="yes"/>
      <point x="293" y="412"/>
      <point x="290" y="413"/>
      <point x="287" y="413" type="curve" smooth="yes"/>
      <point x="72" y="413" type="line"/>
      <point x="71" y="414" type="line"/>
      <point x="203" y="570" type="line" smooth="yes"/>
      <point x="218" y="588"/>
      <point x="225" y="600"/>
      <point x="225" y="616" type="curve" smooth="yes"/>
      <point x="225" y="629"/>
      <point x="215" y="640"/>
      <point x="199" y="640" type="curve" smooth="yes"/>
      <point x="191" y="640"/>
      <point x="178" y="632"/>
      <point x="178" y="622" type="curve" smooth="yes"/>
      <point x="178" y="607"/>
      <point x="192" y="598"/>
      <point x="192" y="586" type="curve" smooth="yes"/>
      <point x="192" y="579"/>
      <point x="194" y="578"/>
    </contour>
  </outline>
</glyph>
<glyph name="at.case" format="2">
  <advance width="827"/>
  <outline>
    <contour>
      <point x="496" y="332" type="curve"/>
      <point x="493" y="336" type="line"/>
      <point x="473" y="346"/>
      <point x="435" y="358"/>
      <point x="392" y="358" type="curve" smooth="yes"/>
      <point x="304" y="358"/>
      <point x="263" y="313"/>
      <point x="263" y="257" type="curve" smooth="yes"/>
      <point x="263" y="199"/>
      <point x="303" y="167"/>
      <point x="363" y="167" type="curve" smooth="yes"/>
      <point x="417" y="167"/>
      <point x="467" y="196"/>
      <point x="503" y="245" type="curve"/>
      <point x="493" y="247" type="line"/>
      <point x="471" y="208"/>
      <point x="430" y="187"/>
      <point x="386" y="187" type="curve" smooth="yes"/>
      <point x="342" y="187"/>
      <point x="312" y="212"/>
      <point x="312" y="263" type="curve" smooth="yes"/>
      <point x="312" y="308"/>
      <point x="338" y="350"/>
      <point x="404" y="350" type="curve" smooth="yes"/>
      <point x="439" y="350"/>
      <point x="473" y="341"/>
    </contour>
    <contour>
      <point x="297" y="471" type="curve" smooth="yes"/>
      <point x="297" y="455"/>
      <point x="308" y="443"/>
      <point x="323" y="443" type="curve" smooth="yes"/>
      <point x="342" y="443"/>
      <point x="355" y="458"/>
      <point x="355" y="479" type="curve" smooth="yes"/>
      <point x="355" y="494" type="line" smooth="yes"/>
      <point x="355" y="530"/>
      <point x="380" y="548"/>
      <point x="416" y="548" type="curve" smooth="yes"/>
      <point x="457" y="548"/>
      <point x="481" y="520"/>
      <point x="481" y="448" type="curve" smooth="yes"/>
      <point x="481" y="284" type="line" smooth="yes"/>
      <point x="481" y="200"/>
      <point x="531" y="167"/>
      <point x="588" y="167" type="curve" smooth="yes"/>
      <point x="668" y="167"/>
      <point x="731" y="248"/>
      <point x="731" y="388" type="curve" smooth="yes"/>
      <point x="731" y="581"/>
      <point x="606" y="714"/>
      <point x="433" y="714" type="curve" smooth="yes"/>
      <point x="219" y="714"/>
      <point x="62" y="562"/>
      <point x="62" y="352" type="curve" smooth="yes"/>
      <point x="62" y="133"/>
      <point x="202" y="-12"/>
      <point x="412" y="-12" type="curve" smooth="yes"/>
      <point x="537" y="-12"/>
      <point x="645" y="56"/>
      <point x="708" y="140" type="curve" smooth="yes"/>
      <point x="707" y="141"/>
      <point x="709" y="145"/>
      <point x="709" y="146" type="curve" smooth="yes"/>
      <point x="709" y="144"/>
      <point x="710" y="142"/>
      <point x="713" y="142" type="curve" smooth="yes"/>
      <point x="715" y="142"/>
      <point x="712" y="142"/>
      <point x="717" y="146" type="curve" smooth="yes"/>
      <point x="655" y="65"/>
      <point x="544" y="-6"/>
      <point x="412" y="-6" type="curve" smooth="yes"/>
      <point x="213" y="-6"/>
      <point x="71" y="142"/>
      <point x="71" y="352" type="curve" smooth="yes"/>
      <point x="71" y="559"/>
      <point x="224" y="708"/>
      <point x="432" y="708" type="curve" smooth="yes"/>
      <point x="599" y="708"/>
      <point x="723" y="577"/>
      <point x="723" y="387" type="curve" smooth="yes"/>
      <point x="723" y="253"/>
      <point x="671" y="175"/>
      <point x="593" y="175" type="curve" smooth="yes"/>
      <point x="546" y="175"/>
      <point x="522" y="205"/>
      <point x="522" y="255" type="curve" smooth="yes"/>
      <point x="522" y="465" type="line" smooth="yes"/>
      <point x="522" y="524"/>
      <point x="483" y="552"/>
      <point x="430" y="552" type="curve" smooth="yes"/>
      <point x="350" y="552"/>
      <point x="297" y="510"/>
    </contour>
  </outline>
</glyph>
<glyph name="exclamdown.case" format="2">
  <advance width="263"/>
  <outline>
    <contour>
      <point x="111" y="13" type="curve" smooth="yes"/>
      <point x="99" y="13"/>
      <point x="91" y="26"/>
      <point x="91" y="42" type="curve" smooth="yes"/>
      <point x="91" y="39"/>
      <point x="91" y="34"/>
      <point x="89" y="29" type="curve" smooth="yes"/>
      <point x="112" y="557" type="line" smooth="yes"/>
      <point x="111" y="558"/>
      <point x="111" y="558"/>
      <point x="112" y="558" type="curve" smooth="yes"/>
      <point x="111" y="558"/>
      <point x="112" y="557"/>
      <point x="111" y="556" type="curve" smooth="yes"/>
      <point x="134" y="42" type="line" smooth="yes"/>
      <point x="133" y="45"/>
      <point x="132" y="43"/>
      <point x="132" y="44" type="curve" smooth="yes"/>
      <point x="132" y="20"/>
      <point x="130" y="13"/>
    </contour>
    <contour>
      <point x="113" y="727" type="curve" smooth="yes"/>
      <point x="96" y="727"/>
      <point x="83" y="714"/>
      <point x="83" y="697" type="curve" smooth="yes"/>
      <point x="83" y="680"/>
      <point x="96" y="668"/>
      <point x="113" y="668" type="curve" smooth="yes"/>
      <point x="130" y="668"/>
      <point x="143" y="680"/>
      <point x="143" y="697" type="curve" smooth="yes"/>
      <point x="143" y="714"/>
      <point x="130" y="727"/>
    </contour>
  </outline>
</glyph>
<glyph name="invertedbrevecmb.case" format="2">
  <outline>
    <contour>
      <point x="172" y="842" type="curve" smooth="yes"/>
      <point x="234" y="842"/>
      <point x="288" y="787"/>
      <point x="288" y="746" type="curve" smooth="yes"/>
      <point x="288" y="737"/>
      <point x="284" y="731"/>
      <point x="275" y="731" type="curve" smooth="yes"/>
      <point x="271" y="731"/>
      <point x="262" y="731"/>
      <point x="267" y="735" type="curve" smooth="yes"/>
      <point x="252" y="773"/>
      <point x="219" y="788"/>
      <point x="172" y="788" type="curve" smooth="yes"/>
      <point x="123" y="788"/>
      <point x="87" y="774"/>
      <point x="71" y="732" type="curve" smooth="yes"/>
      <point x="78" y="733"/>
      <point x="73" y="731"/>
      <point x="67" y="731" type="curve" smooth="yes"/>
      <point x="62" y="731"/>
      <point x="55" y="736"/>
      <point x="55" y="745" type="curve" smooth="yes"/>
      <point x="55" y="782"/>
      <point x="103" y="842"/>
    </contour>
  </outline>
</glyph>
<glyph name="macronbelow" format="2">
  <outline>
    <contour>
      <point x="55" y="-158" type="curve" smooth="yes"/>
      <point x="55" y="-165"/>
      <point x="61" y="-170"/>
      <point x="71" y="-170" type="curve" smooth="yes"/>
      <point x="306" y="-170" type="line" smooth="yes"/>
      <point x="316" y="-170"/>
      <point x="322" y="-165"/>
      <point x="322" y="-158" type="curve" smooth="yes"/>
      <point x="322" y="-150"/>
      <point x="315" y="-144"/>
      <point x="306" y="-144" type="curve" smooth="yes"/>
      <point x="72" y="-144" type="line" smooth="yes"/>
      <point x="63" y="-144"/>
      <point x="55" y="-150"/>
    </contour>
  </outline>
</glyph>
<glyph name="one.case" format="2">
  <advance width="486"/>
  <outline>
    <contour>
      <point x="80" y="635" type="line" smooth="yes"/>
      <point x="73" y="635"/>
      <point x="69" y="637"/>
      <point x="69" y="641" type="curve" smooth="yes"/>
      <point x="69" y="645"/>
      <point x="73" y="647"/>
      <point x="80" y="647" type="curve" smooth="yes"/>
      <point x="141" y="647" type="line" smooth="yes"/>
      <point x="180" y="647"/>
      <point x="197" y="666"/>
      <point x="223" y="700" type="curve" smooth="yes"/>
      <point x="226" y="707"/>
      <point x="229" y="710"/>
      <point x="233" y="710" type="curve" smooth="yes"/>
      <point x="237" y="710"/>
      <point x="239" y="706"/>
      <point x="239" y="700" type="curve" smooth="yes"/>
      <point x="239" y="45" type="line" smooth="yes"/>
      <point x="239" y="30"/>
      <point x="258" y="21"/>
      <point x="282" y="18" type="curve" smooth="yes"/>
      <point x="389" y="3" type="line" smooth="yes"/>
      <point x="393" y="4"/>
      <point x="395" y="3"/>
      <point x="395" y="1" type="curve" smooth="yes"/>
      <point x="395" y="0"/>
      <point x="394" y="0"/>
      <point x="389" y="0" type="curve" smooth="yes"/>
      <point x="44" y="0" type="line" smooth="yes"/>
      <point x="39" y="0"/>
      <point x="36" y="1"/>
      <point x="36" y="3" type="curve" smooth="yes"/>
      <point x="36" y="6"/>
      <point x="39" y="8"/>
      <point x="45" y="7" type="curve" smooth="yes"/>
      <point x="147" y="18" type="line" smooth="yes"/>
      <point x="177" y="20"/>
      <point x="202" y="28"/>
      <point x="202" y="45" type="curve" smooth="yes"/>
      <point x="202" y="570" type="line" smooth="yes"/>
      <point x="202" y="615"/>
      <point x="183" y="635"/>
      <point x="151" y="635" type="curve" smooth="yes"/>
    </contour>
  </outline>
</glyph>
<glyph name="questiondown.case" format="2">
  <advance width="458"/>
  <outline>
    <contour>
      <point x="232" y="417" type="line" smooth="yes"/>
      <point x="233" y="410"/>
      <point x="233" y="408"/>
      <point x="233" y="404" type="curve" smooth="yes"/>
      <point x="233" y="398"/>
      <point x="229" y="395"/>
      <point x="226" y="390" type="curve" smooth="yes"/>
      <point x="164" y="341" type="line" smooth="yes"/>
      <point x="89" y="284"/>
      <point x="58" y="240"/>
      <point x="58" y="148" type="curve" smooth="yes"/>
      <point x="58" y="40"/>
      <point x="104" y="-12"/>
      <point x="174" y="-12" type="curve" smooth="yes"/>
      <point x="242" y="-12"/>
      <point x="280" y="15"/>
      <point x="280" y="94" type="curve" smooth="yes"/>
      <point x="280" y="101" type="line" smooth="yes"/>
      <point x="280" y="122"/>
      <point x="295" y="137"/>
      <point x="312" y="137" type="curve" smooth="yes"/>
      <point x="330" y="137"/>
      <point x="343" y="126"/>
      <point x="343" y="107" type="curve" smooth="yes"/>
      <point x="343" y="49"/>
      <point x="281" y="-12"/>
      <point x="164" y="-12" type="curve" smooth="yes"/>
      <point x="71" y="-12"/>
      <point x="19" y="48"/>
      <point x="19" y="140" type="curve" smooth="yes"/>
      <point x="19" y="213"/>
      <point x="57" y="280"/>
      <point x="157" y="336" type="curve" smooth="yes"/>
      <point x="174" y="344" type="line" smooth="yes"/>
      <point x="186" y="351"/>
      <point x="190" y="362"/>
      <point x="190" y="381" type="curve" smooth="yes"/>
      <point x="208" y="549" type="line" smooth="yes"/>
      <point x="207" y="551"/>
      <point x="206" y="551"/>
      <point x="209" y="551" type="curve" smooth="yes"/>
      <point x="215" y="551"/>
      <point x="213" y="550"/>
      <point x="213" y="554" type="curve" smooth="yes"/>
    </contour>
    <contour>
      <point x="213" y="704" type="curve" smooth="yes"/>
      <point x="197" y="704"/>
      <point x="184" y="691"/>
      <point x="184" y="674" type="curve" smooth="yes"/>
      <point x="184" y="657"/>
      <point x="197" y="645"/>
      <point x="213" y="645" type="curve" smooth="yes"/>
      <point x="230" y="645"/>
      <point x="243" y="657"/>
      <point x="243" y="674" type="curve" smooth="yes"/>
      <point x="243" y="691"/>
      <point x="230" y="704"/>
    </contour>
  </outline>
</glyph>
<glyph name="seven.case" format="2">
  <advance width="502"/>
  <outline>
    <contour>
      <point x="363" y="604" type="curve" smooth="yes"/>
      <point x="310" y="497" type="line" smooth="yes"/>
      <point x="227" y="318"/>
      <point x="152" y="200"/>
      <point x="152" y="84" type="curve" smooth="yes"/>
      <point x="152" y="19"/>
      <point x="172" y="-9"/>
      <point x="200" y="-9" type="curve" smooth="yes"/>
      <point x="217" y="-9"/>
      <point x="227" y="5"/>
      <point x="227" y="32" type="curve" smooth="yes"/>
      <point x="227" y="68"/>
      <point x="200" y="123"/>
      <point x="200" y="183" type="curve" smooth="yes"/>
      <point x="200" y="269"/>
      <point x="248" y="368"/>
      <point x="322" y="493" type="curve" smooth="yes"/>
      <point x="432" y="685" type="line" smooth="yes"/>
      <point x="425" y="683"/>
      <point x="433" y="691"/>
      <point x="433" y="700" type="curve" smooth="yes"/>
      <point x="433" y="697"/>
      <point x="437" y="695"/>
      <point x="447" y="695" type="curve" smooth="yes"/>
      <point x="67" y="695" type="line" smooth="yes"/>
      <point x="69" y="695"/>
      <point x="68" y="691"/>
      <point x="66" y="688" type="curve" smooth="yes"/>
      <point x="46" y="582" type="line" smooth="yes"/>
      <point x="44" y="578"/>
      <point x="45" y="577"/>
      <point x="44" y="577" type="curve" smooth="yes"/>
      <point x="43" y="577"/>
      <point x="44" y="578"/>
      <point x="44" y="576" type="curve" smooth="yes"/>
      <point x="75" y="631" type="line" smooth="yes"/>
      <point x="86" y="648"/>
      <point x="96" y="654"/>
      <point x="113" y="654" type="curve" smooth="yes"/>
      <point x="399" y="654" type="line"/>
      <point x="387" y="670" type="line"/>
      <point x="387" y="650"/>
      <point x="376" y="631"/>
    </contour>
  </outline>
</glyph>
<glyph name="six.case" format="2">
  <advance width="605"/>
  <outline>
    <contour>
      <point x="285" y="708" type="curve" smooth="yes"/>
      <point x="163" y="708"/>
      <point x="68" y="591"/>
      <point x="68" y="348" type="curve" smooth="yes"/>
      <point x="68" y="125"/>
      <point x="156" y="-9"/>
      <point x="284" y="-9" type="curve" smooth="yes"/>
      <point x="399" y="-9"/>
      <point x="479" y="95"/>
      <point x="479" y="214" type="curve" smooth="yes"/>
      <point x="479" y="355"/>
      <point x="394" y="429"/>
      <point x="292" y="429" type="curve" smooth="yes"/>
      <point x="203" y="429"/>
      <point x="119" y="371"/>
      <point x="119" y="218" type="curve"/>
      <point x="122" y="205" type="line"/>
      <point x="122" y="355"/>
      <point x="206" y="419"/>
      <point x="286" y="419" type="curve" smooth="yes"/>
      <point x="373" y="419"/>
      <point x="430" y="342"/>
      <point x="430" y="200" type="curve" smooth="yes"/>
      <point x="430" y="66"/>
      <point x="372" y="-3"/>
      <point x="294" y="-3" type="curve" smooth="yes"/>
      <point x="186" y="-3"/>
      <point x="111" y="98"/>
      <point x="111" y="346" type="curve" smooth="yes"/>
      <point x="111" y="597"/>
      <point x="190" y="699"/>
      <point x="295" y="699" type="curve" smooth="yes"/>
      <point x="357" y="699"/>
      <point x="391" y="665"/>
      <point x="391" y="614" type="curve" smooth="yes"/>
      <point x="391" y="591" type="line" smooth="yes"/>
      <point x="391" y="560"/>
      <point x="398" y="546"/>
      <point x="422" y="546" type="curve" smooth="yes"/>
      <point x="444" y="546"/>
      <point x="453" y="562"/>
      <point x="453" y="589" type="curve" smooth="yes"/>
      <point x="453" y="653"/>
      <point x="381" y="708"/>
    </contour>
  </outline>
</glyph>
<glyph name="three.alt" format="2">
  <advance width="445"/>
  <outline>
    <contour>
      <point x="227" y="351" type="line"/>
      <point x="402" y="604" type="line" smooth="yes"/>
      <point x="408" y="612"/>
      <point x="416" y="622"/>
      <point x="416" y="631" type="curve" smooth="yes"/>
      <point x="416" y="636"/>
      <point x="410" y="640"/>
      <point x="405" y="640" type="curve" smooth="yes"/>
      <point x="91" y="640" type="line" smooth="yes"/>
      <point x="84" y="640"/>
      <point x="78" y="635"/>
      <point x="77" y="628" type="curve" smooth="yes"/>
      <point x="57" y="507" type="line" smooth="yes"/>
      <point x="55" y="497"/>
      <point x="60" y="493"/>
      <point x="64" y="493" type="curve" smooth="yes"/>
      <point x="68" y="493"/>
      <point x="72" y="496"/>
      <point x="73" y="498" type="curve" smooth="yes"/>
      <point x="104" y="554" type="line" smooth="yes"/>
      <point x="112" y="569"/>
      <point x="122" y="575"/>
      <point x="137" y="575" type="curve" smooth="yes"/>
      <point x="371" y="575" type="line"/>
      <point x="369" y="598" type="line"/>
      <point x="205" y="360" type="line" smooth="yes"/>
      <point x="201" y="355"/>
      <point x="200" y="353"/>
      <point x="200" y="349" type="curve" smooth="yes"/>
      <point x="200" y="345"/>
      <point x="203" y="343"/>
      <point x="207" y="343" type="curve" smooth="yes"/>
      <point x="212" y="343" type="line" smooth="yes"/>
      <point x="278" y="343"/>
      <point x="331" y="293"/>
      <point x="331" y="176" type="curve" smooth="yes"/>
      <point x="331" y="76"/>
      <point x="281" y="8"/>
      <point x="203" y="8" type="curve" smooth="yes"/>
      <point x="148" y="8"/>
      <point x="125" y="46"/>
      <point x="125" y="94" type="curve" smooth="yes"/>
      <point x="125" y="120" type="line" smooth="yes"/>
      <point x="125" y="151"/>
      <point x="104" y="173"/>
      <point x="78" y="173" type="curve" smooth="yes"/>
      <point x="50" y="173"/>
      <point x="27" y="149"/>
      <point x="27" y="118" type="curve" smooth="yes"/>
      <point x="27" y="50"/>
      <point x="93" y="-10"/>
      <point x="206" y="-10" type="curve" smooth="yes"/>
      <point x="326" y="-10"/>
      <point x="414" y="77"/>
      <point x="414" y="187" type="curve" smooth="yes"/>
      <point x="414" y="289"/>
      <point x="329" y="362"/>
      <point x="219" y="362" type="curve" smooth="yes"/>
      <point x="213" y="362" type="line"/>
    </contour>
  </outline>
</glyph>
<glyph name="two.case" format="2">
  <advance width="583"/>
  <outline>
    <contour>
      <point x="257" y="311" type="curve" smooth="yes"/>
      <point x="103" y="229"/>
      <point x="52" y="115"/>
      <point x="52" y="8" type="curve" smooth="yes"/>
      <point x="52" y="-3"/>
      <point x="56" y="-9"/>
      <point x="62" y="-9" type="curve" smooth="yes"/>
      <point x="69" y="-9"/>
      <point x="85" y="77"/>
      <point x="140" y="77" type="curve" smooth="yes"/>
      <point x="216" y="77"/>
      <point x="278" y="-9"/>
      <point x="349" y="-9" type="curve" smooth="yes"/>
      <point x="424" y="-9"/>
      <point x="466" y="32"/>
      <point x="466" y="109" type="curve" smooth="yes"/>
      <point x="466" y="103"/>
      <point x="468" y="97"/>
      <point x="469" y="97" type="curve" smooth="yes"/>
      <point x="469" y="97"/>
      <point x="468" y="96"/>
      <point x="467" y="95" type="curve" smooth="yes"/>
      <point x="452" y="57"/>
      <point x="435" y="41"/>
      <point x="386" y="41" type="curve" smooth="yes"/>
      <point x="320" y="41"/>
      <point x="255" y="111"/>
      <point x="161" y="111" type="curve" smooth="yes"/>
      <point x="88" y="111"/>
      <point x="50" y="48"/>
      <point x="50" y="-20" type="curve"/>
      <point x="50" y="-20" type="line"/>
      <point x="50" y="91"/>
      <point x="69" y="184"/>
      <point x="219" y="280" type="curve" smooth="yes"/>
      <point x="405" y="396"/>
      <point x="449" y="456"/>
      <point x="449" y="550" type="curve" smooth="yes"/>
      <point x="449" y="638"/>
      <point x="387" y="706"/>
      <point x="282" y="706" type="curve" smooth="yes"/>
      <point x="163" y="706"/>
      <point x="79" y="607"/>
      <point x="79" y="558" type="curve" smooth="yes"/>
      <point x="79" y="529"/>
      <point x="93" y="515"/>
      <point x="116" y="515" type="curve" smooth="yes"/>
      <point x="128" y="515"/>
      <point x="143" y="534"/>
      <point x="143" y="555" type="curve" smooth="yes"/>
      <point x="143" y="587" type="line" smooth="yes"/>
      <point x="143" y="661"/>
      <point x="181" y="701"/>
      <point x="264" y="701" type="curve" smooth="yes"/>
      <point x="341" y="701"/>
      <point x="409" y="647"/>
      <point x="409" y="546" type="curve" smooth="yes"/>
      <point x="409" y="427"/>
      <point x="358" y="364"/>
    </contour>
  </outline>
</glyph>
